{"glyphs":{"0":{"ha":957,"x_min":0,"x_max":0,"o":"m 479 -17 b 82 478 246 -17 82 188 b 479 971 82 767 246 971 b 875 478 711 971 875 767 b 479 -17 875 188 711 -17 m 479 83 b 765 478 647 83 765 247 b 479 871 765 708 647 871 b 192 478 311 871 192 708 b 479 83 192 247 311 83 "},"1":{"ha":490,"x_min":0,"x_max":0,"o":"m 250 822 l 83 714 l 36 794 l 271 954 l 358 954 l 358 0 l 250 0 "},"2":{"ha":818,"x_min":0,"x_max":0,"o":"m 68 90 l 417 388 b 607 689 551 503 607 594 b 408 874 607 806 510 874 b 153 725 297 874 218 814 l 76 788 b 413 971 156 900 263 971 b 717 690 578 971 717 861 b 492 319 717 561 653 458 l 242 103 l 726 103 l 726 0 l 68 0 "},"3":{"ha":814,"x_min":0,"x_max":0,"o":"m 403 -17 b 56 147 246 -17 125 56 l 131 218 b 403 82 193 138 286 82 b 625 264 536 82 625 156 b 379 433 625 376 529 433 l 278 433 l 278 533 l 381 532 b 604 700 508 531 604 592 b 393 872 604 800 513 872 b 144 738 288 872 213 819 l 72 803 b 399 971 144 899 250 971 b 714 713 581 971 714 865 b 529 489 714 590 628 518 b 735 258 626 467 735 396 b 403 -17 735 99 601 -17 "},"4":{"ha":865,"x_min":0,"x_max":0,"o":"m 546 232 l 69 232 l 56 322 l 529 954 l 654 954 l 654 331 l 797 331 l 797 232 l 654 232 l 654 0 l 546 0 m 546 331 l 546 824 l 179 331 "},"5":{"ha":832,"x_min":0,"x_max":0,"o":"m 414 -17 b 78 135 267 -17 156 46 l 149 214 b 418 81 222 133 313 81 b 643 293 550 81 643 172 b 415 499 643 415 549 499 b 203 425 333 499 263 469 l 124 464 l 138 954 l 701 954 l 701 851 l 243 851 l 233 531 b 438 594 285 565 350 594 b 753 297 610 594 753 486 b 414 -17 753 108 610 -17 "},"6":{"ha":865,"x_min":0,"x_max":0,"o":"m 463 596 b 782 299 636 596 782 488 b 446 -17 782 122 644 -17 b 83 463 188 -17 83 193 b 469 971 83 747 253 971 b 740 857 586 971 669 925 l 681 772 b 467 872 621 831 558 872 b 193 463 314 872 193 692 l 193 450 b 463 596 251 542 350 596 m 444 76 b 672 293 588 76 672 188 b 443 503 672 424 571 503 b 206 325 322 503 229 431 b 444 76 233 181 311 76 "},"7":{"ha":833,"x_min":0,"x_max":0,"o":"m 599 851 l 82 851 l 82 954 l 728 954 l 728 872 l 317 0 l 192 0 "},"8":{"ha":842,"x_min":0,"x_max":0,"o":"m 421 -17 b 72 250 224 -17 72 89 b 283 493 72 369 167 456 b 97 718 175 535 97 608 b 421 971 97 876 256 971 b 746 717 592 971 746 874 b 560 493 746 600 658 529 b 769 250 675 454 769 369 b 421 -17 769 88 617 -17 m 421 536 b 636 707 514 542 636 599 b 421 872 636 803 540 872 b 207 707 301 872 207 803 b 421 536 207 596 331 542 m 421 82 b 660 257 553 82 660 153 b 421 442 660 372 521 439 b 182 257 322 439 182 372 b 421 82 182 153 289 82 "},"9":{"ha":865,"x_min":0,"x_max":0,"o":"m 419 971 b 782 492 678 971 782 761 b 396 -17 782 207 613 -17 b 125 97 279 -17 196 29 l 185 182 b 399 82 244 124 307 82 b 672 492 551 82 672 263 l 672 504 b 403 358 614 413 515 358 b 83 656 229 358 83 467 b 419 971 83 832 221 971 m 422 451 b 660 629 543 451 636 524 b 421 878 632 774 554 878 b 193 661 278 878 193 767 b 422 451 193 531 294 451 "},"A":{"ha":1049,"x_min":0,"x_max":0,"o":"m 790 217 l 258 217 l 163 0 l 44 0 l 465 954 l 583 954 l 1004 0 l 886 0 m 746 319 l 525 821 l 303 319 "},"Á":{"ha":1049,"x_min":0,"x_max":0,"o":"m 563 1036 l 482 1036 l 650 1236 l 760 1211 m 790 217 l 258 217 l 163 0 l 44 0 l 465 954 l 583 954 l 1004 0 l 886 0 m 746 319 l 525 821 l 303 319 "},"Ă":{"ha":1049,"x_min":0,"x_max":0,"o":"m 726 1138 b 524 1054 671 1082 597 1054 b 321 1138 450 1054 378 1082 l 386 1203 b 524 1144 424 1167 475 1144 b 661 1203 572 1144 624 1167 l 726 1138 m 790 217 l 258 217 l 163 0 l 44 0 l 465 954 l 583 954 l 1004 0 l 886 0 m 746 319 l 525 821 l 303 319 "},"Â":{"ha":1049,"x_min":0,"x_max":0,"o":"m 415 1036 l 336 1036 l 475 1226 l 572 1226 l 714 1036 l 633 1036 l 524 1156 m 790 217 l 258 217 l 163 0 l 44 0 l 465 954 l 583 954 l 1004 0 l 886 0 m 746 319 l 525 821 l 303 319 "},"Ä":{"ha":1049,"x_min":0,"x_max":0,"o":"m 390 1065 b 326 1129 354 1065 326 1094 b 390 1193 326 1163 354 1193 b 454 1129 425 1193 454 1163 b 390 1065 454 1094 425 1065 m 657 1065 b 593 1129 621 1065 593 1094 b 657 1193 593 1163 621 1193 b 721 1129 692 1193 721 1163 b 657 1065 721 1094 692 1065 m 790 217 l 258 217 l 163 0 l 44 0 l 465 954 l 583 954 l 1004 0 l 886 0 m 746 319 l 525 821 l 303 319 "},"À":{"ha":1049,"x_min":0,"x_max":0,"o":"m 486 1036 l 289 1211 l 399 1236 l 567 1036 m 790 217 l 258 217 l 163 0 l 44 0 l 465 954 l 583 954 l 1004 0 l 886 0 m 746 319 l 525 821 l 303 319 "},"Ā":{"ha":1049,"x_min":0,"x_max":0,"o":"m 739 1061 l 308 1061 l 308 1138 l 739 1138 m 790 217 l 258 217 l 163 0 l 44 0 l 465 954 l 583 954 l 1004 0 l 886 0 m 746 319 l 525 821 l 303 319 "},"Ą":{"ha":1049,"x_min":0,"x_max":0,"o":"m 1114 -200 b 997 -240 1082 -226 1042 -240 b 846 -92 908 -240 846 -185 b 885 3 846 -54 861 -21 l 790 217 l 258 217 l 163 0 l 44 0 l 465 954 l 583 954 l 1004 0 b 924 -79 957 0 924 -33 b 1004 -158 924 -128 953 -158 b 1069 -132 1033 -158 1056 -147 m 746 319 l 525 821 l 303 319 "},"Å":{"ha":1049,"x_min":0,"x_max":0,"o":"m 524 1054 b 381 1197 444 1054 381 1118 b 524 1340 381 1276 444 1340 b 667 1197 603 1340 667 1276 b 524 1054 667 1118 603 1054 m 524 1279 b 442 1197 479 1279 442 1242 b 524 1115 442 1153 479 1115 b 606 1197 568 1115 606 1153 b 524 1279 606 1242 568 1279 m 790 217 l 258 217 l 163 0 l 44 0 l 465 954 l 583 954 l 1004 0 l 886 0 m 746 319 l 525 821 l 303 319 "},"Ã":{"ha":1049,"x_min":0,"x_max":0,"o":"m 433 1126 b 364 1032 397 1126 375 1099 l 300 1042 b 433 1207 314 1147 357 1207 b 613 1115 515 1207 556 1115 b 682 1210 649 1115 671 1143 l 746 1200 b 613 1035 732 1094 689 1035 b 433 1126 531 1035 490 1126 m 790 217 l 258 217 l 163 0 l 44 0 l 465 954 l 583 954 l 1004 0 l 886 0 m 746 319 l 525 821 l 303 319 "},"Æ":{"ha":1422,"x_min":0,"x_max":0,"o":"m 771 851 l 771 538 l 1289 538 l 1289 435 l 771 435 l 771 103 l 1346 103 l 1346 0 l 661 0 l 661 217 l 294 217 l 169 0 l 44 0 l 594 954 l 1346 954 l 1346 851 m 661 319 l 661 851 l 354 319 "},"B":{"ha":947,"x_min":0,"x_max":0,"o":"m 131 954 l 568 954 b 831 717 722 954 831 856 b 694 507 831 615 781 557 b 868 261 804 451 868 365 b 585 0 868 108 750 0 l 131 0 m 540 550 b 721 703 646 550 721 614 b 540 856 721 792 646 856 l 239 856 l 239 550 m 557 99 b 758 275 675 99 758 172 b 557 451 758 378 675 451 l 239 451 l 239 99 "},"C":{"ha":944,"x_min":0,"x_max":0,"o":"m 561 -17 b 72 478 297 -17 72 210 b 561 971 72 746 297 971 b 904 825 693 971 815 915 l 831 750 b 561 871 761 824 665 871 b 182 478 356 871 182 690 b 561 83 182 264 356 83 b 831 204 665 83 761 131 l 904 129 b 561 -17 815 40 693 -17 "},"Ć":{"ha":944,"x_min":0,"x_max":0,"o":"m 590 1236 l 700 1211 l 503 1036 l 422 1036 m 561 -17 b 72 478 297 -17 72 210 b 561 971 72 746 297 971 b 904 825 693 971 815 915 l 831 750 b 561 871 761 824 665 871 b 182 478 356 871 182 690 b 561 83 182 264 356 83 b 831 204 665 83 761 131 l 904 129 b 561 -17 815 40 693 -17 "},"Č":{"ha":944,"x_min":0,"x_max":0,"o":"m 346 1226 l 425 1226 l 533 1107 l 643 1226 l 724 1226 l 582 1036 l 485 1036 m 561 -17 b 72 478 297 -17 72 210 b 561 971 72 746 297 971 b 904 825 693 971 815 915 l 831 750 b 561 871 761 824 665 871 b 182 478 356 871 182 690 b 561 83 182 264 356 83 b 831 204 665 83 761 131 l 904 129 b 561 -17 815 40 693 -17 "},"Ç":{"ha":944,"x_min":0,"x_max":0,"o":"m 904 129 b 585 -17 821 46 708 -10 l 565 -64 b 581 -62 571 -62 575 -62 b 676 -154 636 -62 676 -100 b 540 -267 676 -222 617 -267 b 418 -228 492 -267 446 -250 l 444 -169 b 535 -201 472 -192 504 -201 b 604 -149 575 -201 604 -179 b 550 -101 604 -122 588 -101 b 503 -117 533 -101 515 -107 l 481 -93 l 514 -14 b 72 478 271 11 72 226 b 561 971 72 746 297 971 b 904 825 693 971 815 915 l 831 750 b 561 871 761 824 665 871 b 182 478 356 871 182 690 b 561 83 182 264 356 83 b 831 204 665 83 761 131 l 904 129 "},"D":{"ha":1058,"x_min":0,"x_max":0,"o":"m 131 954 l 453 954 b 969 478 756 954 969 757 b 453 0 969 199 756 0 l 131 0 m 453 99 b 860 478 692 99 860 256 b 453 856 860 699 692 856 l 239 856 l 239 99 "},"Ð":{"ha":1082,"x_min":0,"x_max":0,"o":"m 476 954 b 993 478 779 954 993 757 b 476 0 993 199 779 0 l 154 0 l 154 435 l 58 435 l 58 538 l 154 538 l 154 954 l 476 954 m 476 99 b 883 478 715 99 883 256 b 476 856 883 699 715 856 l 263 856 l 263 538 l 543 538 l 542 435 l 263 435 l 263 99 l 476 99 "},"Ď":{"ha":1058,"x_min":0,"x_max":0,"o":"m 265 1226 l 344 1226 l 453 1107 l 563 1226 l 643 1226 l 501 1036 l 404 1036 m 131 954 l 453 954 b 969 478 756 954 969 757 b 453 0 969 199 756 0 l 131 0 m 453 99 b 860 478 692 99 860 256 b 453 856 860 699 692 856 l 239 856 l 239 99 "},"Đ":{"ha":1082,"x_min":0,"x_max":0,"o":"m 476 954 b 993 478 779 954 993 757 b 476 0 993 199 779 0 l 154 0 l 154 435 l 58 435 l 58 538 l 154 538 l 154 954 l 476 954 m 476 99 b 883 478 715 99 883 256 b 476 856 883 699 715 856 l 263 856 l 263 538 l 543 538 l 542 435 l 263 435 l 263 99 l 476 99 "},"E":{"ha":871,"x_min":0,"x_max":0,"o":"m 219 851 l 219 538 l 738 538 l 738 435 l 219 435 l 219 103 l 794 103 l 794 0 l 110 0 l 110 954 l 794 954 l 794 851 "},"É":{"ha":871,"x_min":0,"x_max":0,"o":"m 422 1036 l 342 1036 l 510 1236 l 619 1211 m 219 851 l 219 538 l 738 538 l 738 435 l 219 435 l 219 103 l 794 103 l 794 0 l 110 0 l 110 954 l 794 954 l 794 851 "},"Ě":{"ha":871,"x_min":0,"x_max":0,"o":"m 404 1036 l 265 1226 l 344 1226 l 453 1107 l 563 1226 l 643 1226 l 501 1036 m 219 851 l 219 538 l 738 538 l 738 435 l 219 435 l 219 103 l 794 103 l 794 0 l 110 0 l 110 954 l 794 954 l 794 851 "},"Ê":{"ha":871,"x_min":0,"x_max":0,"o":"m 344 1036 l 265 1036 l 404 1226 l 501 1226 l 643 1036 l 563 1036 l 453 1156 m 219 851 l 219 538 l 738 538 l 738 435 l 219 435 l 219 103 l 794 103 l 794 0 l 110 0 l 110 954 l 794 954 l 794 851 "},"Ë":{"ha":871,"x_min":0,"x_max":0,"o":"m 319 1065 b 256 1129 283 1065 256 1094 b 319 1193 256 1163 283 1193 b 383 1129 354 1193 383 1163 b 319 1065 383 1094 354 1065 m 586 1065 b 522 1129 550 1065 522 1094 b 586 1193 522 1163 550 1193 b 650 1129 621 1193 650 1163 b 586 1065 650 1094 621 1065 m 219 851 l 219 538 l 738 538 l 738 435 l 219 435 l 219 103 l 794 103 l 794 0 l 110 0 l 110 954 l 794 954 l 794 851 "},"Ė":{"ha":871,"x_min":0,"x_max":0,"o":"m 453 1065 b 389 1129 417 1065 389 1094 b 453 1193 389 1163 417 1193 b 517 1129 488 1193 517 1163 b 453 1065 517 1094 488 1065 m 219 851 l 219 538 l 738 538 l 738 435 l 219 435 l 219 103 l 794 103 l 794 0 l 110 0 l 110 954 l 794 954 l 794 851 "},"Ẹ":{"ha":871,"x_min":0,"x_max":0,"o":"m 219 851 l 219 538 l 738 538 l 738 435 l 219 435 l 219 103 l 794 103 l 794 0 l 110 0 l 110 954 l 794 954 l 794 851 m 453 -111 b 517 -175 488 -111 517 -142 b 453 -239 517 -210 488 -239 b 389 -175 417 -239 389 -210 b 453 -111 389 -142 417 -111 "},"È":{"ha":871,"x_min":0,"x_max":0,"o":"m 469 1036 l 272 1211 l 382 1236 l 550 1036 m 219 851 l 219 538 l 738 538 l 738 435 l 219 435 l 219 103 l 794 103 l 794 0 l 110 0 l 110 954 l 794 954 l 794 851 "},"Ē":{"ha":871,"x_min":0,"x_max":0,"o":"m 668 1061 l 238 1061 l 238 1138 l 668 1138 m 219 851 l 219 538 l 738 538 l 738 435 l 219 435 l 219 103 l 794 103 l 794 0 l 110 0 l 110 954 l 794 954 l 794 851 "},"Ę":{"ha":871,"x_min":0,"x_max":0,"o":"m 219 851 l 219 538 l 738 538 l 738 435 l 219 435 l 219 103 l 794 103 l 794 0 l 685 0 b 604 -79 638 0 604 -33 b 685 -158 604 -128 633 -158 b 750 -132 714 -158 736 -147 l 794 -200 b 678 -240 763 -226 722 -240 b 526 -92 589 -240 526 -185 b 563 0 526 -56 542 -24 l 110 0 l 110 954 l 794 954 l 794 851 "},"Ẽ":{"ha":871,"x_min":0,"x_max":0,"o":"m 363 1126 b 293 1032 326 1126 304 1099 l 229 1042 b 363 1207 243 1147 286 1207 b 542 1115 444 1207 485 1115 b 611 1210 578 1115 600 1143 l 675 1200 b 542 1035 661 1094 618 1035 b 363 1126 460 1035 419 1126 m 219 851 l 219 538 l 738 538 l 738 435 l 219 435 l 219 103 l 794 103 l 794 0 l 110 0 l 110 954 l 794 954 l 794 851 "},"F":{"ha":846,"x_min":0,"x_max":0,"o":"m 219 851 l 219 538 l 738 538 l 738 435 l 219 435 l 219 0 l 110 0 l 110 954 l 794 954 l 794 851 "},"G":{"ha":1035,"x_min":0,"x_max":0,"o":"m 550 503 l 932 503 l 932 129 b 561 -17 843 40 693 -17 b 72 478 297 -17 72 210 b 561 971 72 746 297 971 b 932 825 693 971 843 915 l 858 750 b 561 871 789 824 665 871 b 182 478 356 871 182 690 b 561 83 182 264 356 83 b 824 172 650 83 753 118 l 824 400 l 550 400 "},"Ğ":{"ha":1035,"x_min":0,"x_max":0,"o":"m 764 1138 b 561 1054 708 1082 635 1054 b 358 1138 488 1054 415 1082 l 424 1203 b 561 1144 461 1167 513 1144 b 699 1203 610 1144 661 1167 l 764 1138 m 550 503 l 932 503 l 932 129 b 561 -17 843 40 693 -17 b 72 478 297 -17 72 210 b 561 971 72 746 297 971 b 932 825 693 971 843 915 l 858 750 b 561 871 789 824 665 871 b 182 478 356 871 182 690 b 561 83 182 264 356 83 b 824 172 650 83 753 118 l 824 400 l 550 400 "},"Ģ":{"ha":1035,"x_min":0,"x_max":0,"o":"m 550 503 l 932 503 l 932 129 b 561 -17 843 40 693 -17 b 72 478 297 -17 72 210 b 561 971 72 746 297 971 b 932 825 693 971 843 915 l 858 750 b 561 871 789 824 665 871 b 182 478 356 871 182 690 b 561 83 182 264 356 83 b 824 172 650 83 753 118 l 824 400 l 550 400 m 557 -114 b 629 -208 601 -114 629 -153 b 539 -382 629 -254 608 -293 l 494 -350 b 556 -240 526 -314 547 -278 b 493 -176 521 -240 493 -211 b 557 -114 493 -143 521 -114 "},"H":{"ha":999,"x_min":0,"x_max":0,"o":"m 889 954 l 889 0 l 781 0 l 781 435 l 218 435 l 218 0 l 110 0 l 110 954 l 218 954 l 218 538 l 781 538 l 781 954 "},"I":{"ha":328,"x_min":0,"x_max":0,"o":"m 110 954 l 218 954 l 218 0 l 110 0 "},"Í":{"ha":328,"x_min":0,"x_max":0,"o":"m 290 1236 l 400 1211 l 203 1036 l 122 1036 m 110 954 l 218 954 l 218 0 l 110 0 "},"Î":{"ha":328,"x_min":0,"x_max":0,"o":"m 115 1226 l 213 1226 l 354 1036 l 274 1036 l 164 1156 l 56 1036 l -24 1036 m 110 954 l 218 954 l 218 0 l 110 0 "},"Ï":{"ha":328,"x_min":0,"x_max":0,"o":"m 31 1065 b -33 1129 -6 1065 -33 1094 b 31 1193 -33 1163 -6 1193 b 94 1129 65 1193 94 1163 b 31 1065 94 1094 65 1065 m 297 1065 b 233 1129 261 1065 233 1094 b 297 1193 233 1163 261 1193 b 361 1129 332 1193 361 1163 b 297 1065 361 1094 332 1065 m 110 954 l 218 954 l 218 0 l 110 0 "},"İ":{"ha":328,"x_min":0,"x_max":0,"o":"m 164 1065 b 100 1129 128 1065 100 1094 b 164 1193 100 1163 128 1193 b 228 1129 199 1193 228 1163 b 164 1065 228 1094 199 1065 m 110 954 l 218 954 l 218 0 l 110 0 "},"Ì":{"ha":328,"x_min":0,"x_max":0,"o":"m -72 1211 l 38 1236 l 206 1036 l 125 1036 m 110 954 l 218 954 l 218 0 l 110 0 "},"Ī":{"ha":328,"x_min":0,"x_max":0,"o":"m -51 1138 l 379 1138 l 379 1061 l -51 1061 m 110 954 l 218 954 l 218 0 l 110 0 "},"Į":{"ha":328,"x_min":0,"x_max":0,"o":"m 328 -200 b 211 -240 296 -226 256 -240 b 60 -92 122 -240 60 -185 b 110 13 60 -49 81 -10 l 110 954 l 218 954 l 218 0 b 138 -79 171 0 138 -33 b 218 -158 138 -128 167 -158 b 283 -132 247 -158 269 -147 "},"J":{"ha":750,"x_min":0,"x_max":0,"o":"m 329 -17 b 36 142 217 -17 94 49 l 115 219 b 329 82 153 139 242 82 b 522 311 442 82 522 176 l 522 954 l 631 954 l 631 311 b 329 -17 631 119 506 -17 "},"K":{"ha":917,"x_min":0,"x_max":0,"o":"m 128 954 l 236 954 l 236 426 l 719 954 l 863 954 l 461 518 l 889 0 l 749 0 l 386 444 l 236 286 l 236 0 l 128 0 "},"Ķ":{"ha":917,"x_min":0,"x_max":0,"o":"m 128 954 l 236 954 l 236 426 l 719 954 l 863 954 l 461 518 l 889 0 l 749 0 l 386 444 l 236 286 l 236 0 l 128 0 m 411 -350 b 472 -240 443 -314 464 -278 b 410 -176 438 -240 410 -211 b 474 -114 410 -143 438 -114 b 546 -208 518 -114 546 -153 b 456 -382 546 -254 525 -293 "},"L":{"ha":771,"x_min":0,"x_max":0,"o":"m 724 103 l 724 0 l 94 0 l 94 954 l 203 954 l 203 103 "},"Ĺ":{"ha":771,"x_min":0,"x_max":0,"o":"m 189 1036 l 108 1036 l 276 1236 l 386 1211 m 724 103 l 724 0 l 94 0 l 94 954 l 203 954 l 203 103 "},"Ľ":{"ha":771,"x_min":0,"x_max":0,"o":"m 369 844 b 307 908 335 844 307 874 b 371 971 307 942 335 971 b 443 876 415 971 443 932 b 353 703 443 831 422 792 l 308 735 b 369 844 340 771 361 807 m 724 103 l 724 0 l 94 0 l 94 954 l 203 954 l 203 103 "},"Ł":{"ha":843,"x_min":0,"x_max":0,"o":"m 796 103 l 796 0 l 167 0 l 167 385 l 51 325 l 51 429 l 167 489 l 167 954 l 275 954 l 275 544 l 467 643 l 467 539 l 275 440 l 275 103 "},"M":{"ha":1186,"x_min":0,"x_max":0,"o":"m 131 954 l 239 954 l 593 289 l 947 954 l 1056 954 l 1056 0 l 947 0 l 947 721 l 593 56 l 239 721 l 239 0 l 131 0 "},"N":{"ha":1069,"x_min":0,"x_max":0,"o":"m 131 954 l 239 954 l 831 178 l 831 954 l 939 954 l 939 0 l 831 0 l 239 776 l 239 0 l 131 0 "},"Ń":{"ha":1069,"x_min":0,"x_max":0,"o":"m 592 1236 l 701 1211 l 504 1036 l 424 1036 m 131 954 l 239 954 l 831 178 l 831 954 l 939 954 l 939 0 l 831 0 l 239 776 l 239 0 l 131 0 "},"Ň":{"ha":1069,"x_min":0,"x_max":0,"o":"m 347 1226 l 426 1226 l 535 1107 l 644 1226 l 725 1226 l 583 1036 l 486 1036 m 131 954 l 239 954 l 831 178 l 831 954 l 939 954 l 939 0 l 831 0 l 239 776 l 239 0 l 131 0 "},"Ņ":{"ha":1069,"x_min":0,"x_max":0,"o":"m 131 954 l 239 954 l 831 178 l 831 954 l 939 954 l 939 0 l 831 0 l 239 776 l 239 0 l 131 0 m 472 -350 b 533 -240 504 -314 525 -278 b 471 -176 499 -240 471 -211 b 535 -114 471 -143 499 -114 b 607 -208 579 -114 607 -153 b 517 -382 607 -254 586 -293 "},"Ñ":{"ha":1069,"x_min":0,"x_max":0,"o":"m 624 1035 b 444 1126 542 1035 501 1126 b 375 1032 408 1126 386 1099 l 311 1042 b 444 1207 325 1147 368 1207 b 624 1115 526 1207 567 1115 b 693 1210 660 1115 682 1143 l 757 1200 b 624 1035 743 1094 700 1035 m 131 954 l 239 954 l 831 178 l 831 954 l 939 954 l 939 0 l 831 0 l 239 776 l 239 0 l 131 0 "},"O":{"ha":1121,"x_min":0,"x_max":0,"o":"m 561 -17 b 72 478 297 -17 72 210 b 561 971 72 746 297 971 b 1049 478 826 971 1049 746 b 561 -17 1049 210 826 -17 m 561 83 b 939 478 767 83 939 264 b 561 871 939 690 767 871 b 182 478 356 871 182 690 b 561 83 182 264 356 83 "},"Ó":{"ha":1121,"x_min":0,"x_max":0,"o":"m 688 1236 l 797 1211 l 600 1036 l 519 1036 m 561 -17 b 72 478 297 -17 72 210 b 561 971 72 746 297 971 b 1049 478 826 971 1049 746 b 561 -17 1049 210 826 -17 m 561 83 b 939 478 767 83 939 264 b 561 871 939 690 767 871 b 182 478 356 871 182 690 b 561 83 182 264 356 83 "},"Ô":{"ha":1121,"x_min":0,"x_max":0,"o":"m 513 1226 l 610 1226 l 751 1036 l 671 1036 l 561 1156 l 453 1036 l 374 1036 m 561 -17 b 72 478 297 -17 72 210 b 561 971 72 746 297 971 b 1049 478 826 971 1049 746 b 561 -17 1049 210 826 -17 m 561 83 b 939 478 767 83 939 264 b 561 871 939 690 767 871 b 182 478 356 871 182 690 b 561 83 182 264 356 83 "},"Ö":{"ha":1121,"x_min":0,"x_max":0,"o":"m 428 1065 b 364 1129 392 1065 364 1094 b 428 1193 364 1163 392 1193 b 492 1129 463 1193 492 1163 b 428 1065 492 1094 463 1065 m 694 1065 b 631 1129 658 1065 631 1094 b 694 1193 631 1163 658 1193 b 758 1129 729 1193 758 1163 b 694 1065 758 1094 729 1065 m 561 -17 b 72 478 297 -17 72 210 b 561 971 72 746 297 971 b 1049 478 826 971 1049 746 b 561 -17 1049 210 826 -17 m 561 83 b 939 478 767 83 939 264 b 561 871 939 690 767 871 b 182 478 356 871 182 690 b 561 83 182 264 356 83 "},"Ò":{"ha":1121,"x_min":0,"x_max":0,"o":"m 328 1211 l 438 1236 l 606 1036 l 525 1036 m 561 -17 b 72 478 297 -17 72 210 b 561 971 72 746 297 971 b 1049 478 826 971 1049 746 b 561 -17 1049 210 826 -17 m 561 83 b 939 478 767 83 939 264 b 561 871 939 690 767 871 b 182 478 356 871 182 690 b 561 83 182 264 356 83 "},"Ő":{"ha":1121,"x_min":0,"x_max":0,"o":"m 535 1236 l 644 1211 l 447 1035 l 367 1035 m 813 1233 l 922 1208 l 725 1035 l 644 1035 m 561 -17 b 72 478 297 -17 72 210 b 561 971 72 746 297 971 b 1049 478 826 971 1049 746 b 561 -17 1049 210 826 -17 m 561 83 b 939 478 767 83 939 264 b 561 871 939 690 767 871 b 182 478 356 871 182 690 b 561 83 182 264 356 83 "},"Ō":{"ha":1121,"x_min":0,"x_max":0,"o":"m 346 1138 l 776 1138 l 776 1061 l 346 1061 m 561 -17 b 72 478 297 -17 72 210 b 561 971 72 746 297 971 b 1049 478 826 971 1049 746 b 561 -17 1049 210 826 -17 m 561 83 b 939 478 767 83 939 264 b 561 871 939 690 767 871 b 182 478 356 871 182 690 b 561 83 182 264 356 83 "},"Ø":{"ha":1121,"x_min":0,"x_max":0,"o":"m 915 814 b 1049 478 997 725 1049 607 b 561 -17 1049 210 826 -17 b 274 81 456 -17 356 19 l 203 0 l 85 0 l 207 140 b 72 478 124 229 72 349 b 561 971 72 746 297 971 b 849 874 668 971 768 935 l 919 954 l 1038 954 l 915 814 m 182 478 b 276 219 182 381 218 289 l 781 796 b 561 871 718 843 642 871 b 182 478 356 871 182 690 m 561 83 b 939 478 767 83 939 264 b 844 735 939 575 903 665 l 342 158 b 561 83 404 111 481 83 "},"Õ":{"ha":1121,"x_min":0,"x_max":0,"o":"m 650 1035 b 471 1126 568 1035 528 1126 b 401 1032 435 1126 413 1099 l 338 1042 b 471 1207 351 1147 394 1207 b 650 1115 553 1207 593 1115 b 719 1210 686 1115 708 1143 l 783 1200 b 650 1035 769 1094 726 1035 m 561 -17 b 72 478 297 -17 72 210 b 561 971 72 746 297 971 b 1049 478 826 971 1049 746 b 561 -17 1049 210 826 -17 m 561 83 b 939 478 767 83 939 264 b 561 871 939 690 767 871 b 182 478 356 871 182 690 b 561 83 182 264 356 83 "},"Œ":{"ha":1433,"x_min":0,"x_max":0,"o":"m 782 851 l 782 538 l 1300 538 l 1300 435 l 782 435 l 782 103 l 1357 103 l 1357 0 l 561 0 b 72 464 297 0 72 196 b 561 954 72 732 297 954 l 1357 954 l 1357 851 m 672 100 l 672 854 l 561 854 b 182 464 356 854 182 676 b 561 100 182 250 356 100 "},"P":{"ha":894,"x_min":0,"x_max":0,"o":"m 110 954 l 497 954 b 849 649 694 954 849 828 b 497 343 849 469 694 343 l 218 343 l 218 0 l 110 0 m 478 446 b 739 649 633 446 739 521 b 478 851 739 776 633 851 l 218 851 l 218 446 "},"Þ":{"ha":894,"x_min":0,"x_max":0,"o":"m 110 954 l 221 954 l 221 786 l 497 786 b 849 481 694 786 849 660 b 497 175 849 301 694 175 l 218 175 l 218 0 l 110 0 m 478 278 b 739 481 633 278 739 353 b 478 683 739 608 633 683 l 218 683 l 218 278 "},"Q":{"ha":1121,"x_min":0,"x_max":0,"o":"m 1049 478 b 942 174 1049 364 1008 258 l 1049 81 l 979 0 l 868 97 b 561 -17 783 26 676 -17 b 72 478 297 -17 72 210 b 561 971 72 746 297 971 b 1049 478 826 971 1049 746 m 561 83 b 789 165 646 83 725 114 l 640 294 l 710 375 l 863 243 b 939 478 910 308 939 390 b 561 871 939 690 767 871 b 182 478 356 871 182 690 b 561 83 182 264 356 83 "},"R":{"ha":903,"x_min":0,"x_max":0,"o":"m 849 649 b 589 353 849 499 740 385 l 836 0 l 713 0 l 471 343 l 218 343 l 218 0 l 110 0 l 110 954 l 497 954 b 849 649 694 954 849 828 m 218 446 l 478 446 b 739 649 633 446 739 521 b 478 851 739 776 633 851 l 218 851 "},"Ŕ":{"ha":903,"x_min":0,"x_max":0,"o":"m 433 1036 l 353 1036 l 521 1236 l 631 1211 m 849 649 b 589 353 849 499 740 385 l 836 0 l 713 0 l 471 343 l 218 343 l 218 0 l 110 0 l 110 954 l 497 954 b 849 649 694 954 849 828 m 218 446 l 478 446 b 739 649 633 446 739 521 b 478 851 739 776 633 851 l 218 851 "},"Ř":{"ha":903,"x_min":0,"x_max":0,"o":"m 415 1036 l 276 1226 l 356 1226 l 464 1107 l 574 1226 l 654 1226 l 513 1036 m 849 649 b 589 353 849 499 740 385 l 836 0 l 713 0 l 471 343 l 218 343 l 218 0 l 110 0 l 110 954 l 497 954 b 849 649 694 954 849 828 m 218 446 l 478 446 b 739 649 633 446 739 521 b 478 851 739 776 633 851 l 218 851 "},"Ŗ":{"ha":903,"x_min":0,"x_max":0,"o":"m 849 649 b 589 353 849 499 740 385 l 836 0 l 713 0 l 471 343 l 218 343 l 218 0 l 110 0 l 110 954 l 497 954 b 849 649 694 954 849 828 m 218 446 l 478 446 b 739 649 633 446 739 521 b 478 851 739 776 633 851 l 218 851 m 443 -114 b 515 -208 488 -114 515 -153 b 425 -382 515 -254 494 -293 l 381 -350 b 442 -240 413 -314 433 -278 b 379 -176 407 -240 379 -211 b 443 -114 379 -143 407 -114 "},"S":{"ha":851,"x_min":0,"x_max":0,"o":"m 440 -15 b 64 136 283 -15 160 42 l 132 221 b 444 83 213 140 311 83 b 667 250 592 83 667 164 b 410 431 667 351 576 392 b 97 700 218 475 97 535 b 417 972 97 853 233 972 b 751 836 558 972 664 917 l 685 751 b 411 874 606 828 511 874 b 207 708 293 874 207 796 b 464 536 207 610 301 575 b 776 260 646 493 776 428 b 440 -15 776 108 663 -15 "},"Ś":{"ha":851,"x_min":0,"x_max":0,"o":"m 474 1236 l 583 1211 l 386 1036 l 306 1036 m 440 -15 b 64 136 283 -15 160 42 l 132 221 b 444 83 213 140 311 83 b 667 250 592 83 667 164 b 410 431 667 351 576 392 b 97 700 218 475 97 535 b 417 972 97 853 233 972 b 751 836 558 972 664 917 l 685 751 b 411 874 606 828 511 874 b 207 708 293 874 207 796 b 464 536 207 610 301 575 b 776 260 646 493 776 428 b 440 -15 776 108 663 -15 "},"Š":{"ha":851,"x_min":0,"x_max":0,"o":"m 229 1226 l 308 1226 l 417 1107 l 526 1226 l 607 1226 l 465 1036 l 368 1036 m 440 -15 b 64 136 283 -15 160 42 l 132 221 b 444 83 213 140 311 83 b 667 250 592 83 667 164 b 410 431 667 351 576 392 b 97 700 218 475 97 535 b 417 972 97 853 233 972 b 751 836 558 972 664 917 l 685 751 b 411 874 606 828 511 874 b 207 708 293 874 207 796 b 464 536 207 610 301 575 b 776 260 646 493 776 428 b 440 -15 776 108 663 -15 "},"Ş":{"ha":851,"x_min":0,"x_max":0,"o":"m 776 260 b 465 -15 776 114 671 -6 l 444 -64 b 460 -62 450 -62 454 -62 b 556 -154 515 -62 556 -100 b 419 -267 556 -222 496 -267 b 297 -228 371 -267 325 -250 l 324 -169 b 414 -201 351 -192 383 -201 b 483 -149 454 -201 483 -179 b 429 -101 483 -122 467 -101 b 382 -117 413 -101 394 -107 l 360 -93 l 393 -14 b 64 136 258 -3 150 51 l 132 221 b 444 83 213 140 311 83 b 667 250 592 83 667 164 b 410 431 667 351 576 392 b 97 700 218 475 97 535 b 417 972 97 853 233 972 b 751 836 558 972 664 917 l 685 751 b 411 874 606 828 511 874 b 207 708 293 874 207 796 b 464 536 207 610 301 575 b 776 260 646 493 776 428 "},"T":{"ha":875,"x_min":0,"x_max":0,"o":"m 383 851 l 63 851 l 63 954 l 813 954 l 813 851 l 492 851 l 492 0 l 383 0 "},"Ť":{"ha":875,"x_min":0,"x_max":0,"o":"m 250 1226 l 329 1226 l 438 1107 l 547 1226 l 628 1226 l 486 1036 l 389 1036 m 383 851 l 63 851 l 63 954 l 813 954 l 813 851 l 492 851 l 492 0 l 383 0 "},"Ţ":{"ha":875,"x_min":0,"x_max":0,"o":"m 474 0 l 447 -64 b 463 -62 453 -62 457 -62 b 558 -154 518 -62 558 -100 b 422 -267 558 -222 499 -267 b 300 -228 374 -267 328 -250 l 326 -169 b 417 -201 354 -192 386 -201 b 486 -149 457 -201 486 -179 b 432 -101 486 -122 469 -101 b 385 -117 415 -101 397 -107 l 363 -93 l 401 0 l 383 0 l 383 851 l 63 851 l 63 954 l 813 954 l 813 851 l 492 851 l 492 0 "},"U":{"ha":1036,"x_min":0,"x_max":0,"o":"m 518 -17 b 119 396 285 -17 119 154 l 119 954 l 228 954 l 228 396 b 518 82 228 213 349 82 b 808 396 688 82 808 213 l 808 954 l 917 954 l 917 396 b 518 -17 917 154 751 -17 "},"Ú":{"ha":1036,"x_min":0,"x_max":0,"o":"m 575 1236 l 685 1211 l 488 1036 l 407 1036 m 518 -17 b 119 396 285 -17 119 154 l 119 954 l 228 954 l 228 396 b 518 82 228 213 349 82 b 808 396 688 82 808 213 l 808 954 l 917 954 l 917 396 b 518 -17 917 154 751 -17 "},"Û":{"ha":1036,"x_min":0,"x_max":0,"o":"m 469 1226 l 567 1226 l 708 1036 l 628 1036 l 518 1156 l 410 1036 l 331 1036 m 518 -17 b 119 396 285 -17 119 154 l 119 954 l 228 954 l 228 396 b 518 82 228 213 349 82 b 808 396 688 82 808 213 l 808 954 l 917 954 l 917 396 b 518 -17 917 154 751 -17 "},"Ü":{"ha":1036,"x_min":0,"x_max":0,"o":"m 385 1065 b 321 1129 349 1065 321 1094 b 385 1193 321 1163 349 1193 b 449 1129 419 1193 449 1163 b 385 1065 449 1094 419 1065 m 651 1065 b 588 1129 615 1065 588 1094 b 651 1193 588 1163 615 1193 b 715 1129 686 1193 715 1163 b 651 1065 715 1094 686 1065 m 518 -17 b 119 396 285 -17 119 154 l 119 954 l 228 954 l 228 396 b 518 82 228 213 349 82 b 808 396 688 82 808 213 l 808 954 l 917 954 l 917 396 b 518 -17 917 154 751 -17 "},"Ù":{"ha":1036,"x_min":0,"x_max":0,"o":"m 338 1211 l 447 1236 l 615 1036 l 535 1036 m 518 -17 b 119 396 285 -17 119 154 l 119 954 l 228 954 l 228 396 b 518 82 228 213 349 82 b 808 396 688 82 808 213 l 808 954 l 917 954 l 917 396 b 518 -17 917 154 751 -17 "},"Ű":{"ha":1036,"x_min":0,"x_max":0,"o":"m 492 1236 l 601 1211 l 404 1035 l 324 1035 m 769 1233 l 879 1208 l 682 1035 l 601 1035 m 518 -17 b 119 396 285 -17 119 154 l 119 954 l 228 954 l 228 396 b 518 82 228 213 349 82 b 808 396 688 82 808 213 l 808 954 l 917 954 l 917 396 b 518 -17 917 154 751 -17 "},"Ū":{"ha":1036,"x_min":0,"x_max":0,"o":"m 303 1138 l 733 1138 l 733 1061 l 303 1061 m 518 -17 b 119 396 285 -17 119 154 l 119 954 l 228 954 l 228 396 b 518 82 228 213 349 82 b 808 396 688 82 808 213 l 808 954 l 917 954 l 917 396 b 518 -17 917 154 751 -17 "},"Ų":{"ha":1036,"x_min":0,"x_max":0,"o":"m 917 954 l 917 396 b 518 -17 917 154 751 -17 l 497 -17 b 468 -79 479 -31 468 -53 b 549 -158 468 -128 497 -158 b 614 -132 578 -158 600 -147 l 658 -200 b 542 -240 626 -226 586 -240 b 390 -92 453 -240 390 -185 b 421 -6 390 -58 403 -29 b 119 396 240 35 119 189 l 119 954 l 228 954 l 228 396 b 518 82 228 213 349 82 b 808 396 688 82 808 213 l 808 954 "},"Ů":{"ha":1036,"x_min":0,"x_max":0,"o":"m 518 1054 b 375 1197 439 1054 375 1118 b 518 1340 375 1276 439 1340 b 661 1197 597 1340 661 1276 b 518 1054 661 1118 597 1054 m 518 1115 b 600 1197 563 1115 600 1153 b 518 1279 600 1242 563 1279 b 436 1197 474 1279 436 1242 b 518 1115 436 1153 474 1115 m 518 -17 b 119 396 285 -17 119 154 l 119 954 l 228 954 l 228 396 b 518 82 228 213 349 82 b 808 396 688 82 808 213 l 808 954 l 917 954 l 917 396 b 518 -17 917 154 751 -17 "},"V":{"ha":1049,"x_min":0,"x_max":0,"o":"m 1004 954 l 583 0 l 465 0 l 44 954 l 163 954 l 525 133 l 886 954 "},"W":{"ha":1501,"x_min":0,"x_max":0,"o":"m 51 954 l 174 954 l 438 182 l 690 954 l 811 954 l 1064 182 l 1328 954 l 1450 954 l 1124 0 l 1017 0 l 751 813 l 485 0 l 378 0 "},"Ẃ":{"ha":1501,"x_min":0,"x_max":0,"o":"m 878 1236 l 988 1211 l 790 1036 l 710 1036 m 51 954 l 174 954 l 438 182 l 690 954 l 811 954 l 1064 182 l 1328 954 l 1450 954 l 1124 0 l 1017 0 l 751 813 l 485 0 l 378 0 "},"Ŵ":{"ha":1501,"x_min":0,"x_max":0,"o":"m 703 1226 l 800 1226 l 942 1036 l 861 1036 l 751 1156 l 643 1036 l 564 1036 m 51 954 l 174 954 l 438 182 l 690 954 l 811 954 l 1064 182 l 1328 954 l 1450 954 l 1124 0 l 1017 0 l 751 813 l 485 0 l 378 0 "},"Ẅ":{"ha":1501,"x_min":0,"x_max":0,"o":"m 618 1065 b 554 1129 582 1065 554 1094 b 618 1193 554 1163 582 1193 b 682 1129 653 1193 682 1163 b 618 1065 682 1094 653 1065 m 885 1065 b 821 1129 849 1065 821 1094 b 885 1193 821 1163 849 1193 b 949 1129 919 1193 949 1163 b 885 1065 949 1094 919 1065 m 51 954 l 174 954 l 438 182 l 690 954 l 811 954 l 1064 182 l 1328 954 l 1450 954 l 1124 0 l 1017 0 l 751 813 l 485 0 l 378 0 "},"Ẁ":{"ha":1501,"x_min":0,"x_max":0,"o":"m 515 1211 l 625 1236 l 793 1036 l 713 1036 m 51 954 l 174 954 l 438 182 l 690 954 l 811 954 l 1064 182 l 1328 954 l 1450 954 l 1124 0 l 1017 0 l 751 813 l 485 0 l 378 0 "},"X":{"ha":968,"x_min":0,"x_max":0,"o":"m 550 478 l 915 0 l 782 0 l 483 390 l 185 0 l 53 0 l 418 476 l 53 954 l 186 954 l 485 564 l 783 954 l 915 954 "},"Y":{"ha":932,"x_min":0,"x_max":0,"o":"m 410 389 l 25 954 l 160 954 l 467 492 l 776 954 l 907 954 l 524 389 l 524 0 l 410 0 "},"Ý":{"ha":932,"x_min":0,"x_max":0,"o":"m 524 1236 l 633 1211 l 436 1036 l 356 1036 m 410 389 l 25 954 l 160 954 l 467 492 l 776 954 l 907 954 l 524 389 l 524 0 l 410 0 "},"Ŷ":{"ha":932,"x_min":0,"x_max":0,"o":"m 418 1226 l 515 1226 l 657 1036 l 576 1036 l 467 1156 l 358 1036 l 279 1036 m 410 389 l 25 954 l 160 954 l 467 492 l 776 954 l 907 954 l 524 389 l 524 0 l 410 0 "},"Ÿ":{"ha":932,"x_min":0,"x_max":0,"o":"m 333 1065 b 269 1129 297 1065 269 1094 b 333 1193 269 1163 297 1193 b 397 1129 368 1193 397 1163 b 333 1065 397 1094 368 1065 m 600 1065 b 536 1129 564 1065 536 1094 b 600 1193 536 1163 564 1193 b 664 1129 635 1193 664 1163 b 600 1065 664 1094 635 1065 m 410 389 l 25 954 l 160 954 l 467 492 l 776 954 l 907 954 l 524 389 l 524 0 l 410 0 "},"Ỳ":{"ha":932,"x_min":0,"x_max":0,"o":"m 286 1211 l 396 1236 l 564 1036 l 483 1036 m 410 389 l 25 954 l 160 954 l 467 492 l 776 954 l 907 954 l 524 389 l 524 0 l 410 0 "},"Z":{"ha":888,"x_min":0,"x_max":0,"o":"m 81 86 l 656 851 l 90 851 l 90 954 l 804 954 l 804 868 l 228 103 l 810 103 l 810 0 l 81 0 "},"Ź":{"ha":888,"x_min":0,"x_max":0,"o":"m 504 1236 l 614 1211 l 417 1036 l 336 1036 m 81 86 l 656 851 l 90 851 l 90 954 l 804 954 l 804 868 l 228 103 l 810 103 l 810 0 l 81 0 "},"Ž":{"ha":888,"x_min":0,"x_max":0,"o":"m 260 1226 l 339 1226 l 447 1107 l 557 1226 l 638 1226 l 496 1036 l 399 1036 m 81 86 l 656 851 l 90 851 l 90 954 l 804 954 l 804 868 l 228 103 l 810 103 l 810 0 l 81 0 "},"Ż":{"ha":888,"x_min":0,"x_max":0,"o":"m 447 1065 b 383 1129 411 1065 383 1094 b 447 1193 383 1163 411 1193 b 511 1129 482 1193 511 1163 b 447 1065 511 1094 482 1065 m 81 86 l 656 851 l 90 851 l 90 954 l 804 954 l 804 868 l 228 103 l 810 103 l 810 0 l 81 0 "},"a":{"ha":796,"x_min":0,"x_max":0,"o":"m 397 735 b 689 438 593 735 689 611 l 689 0 l 585 0 l 585 113 b 332 -17 533 28 426 -17 b 69 213 181 -17 69 71 b 351 451 69 356 197 451 b 585 411 429 451 511 435 l 585 438 b 390 646 585 535 546 646 b 181 581 318 646 246 614 l 139 665 b 397 735 242 717 328 735 m 350 75 b 585 225 444 75 557 124 l 585 335 b 368 364 519 353 446 364 b 171 217 261 364 171 303 b 350 75 171 128 249 75 "},"á":{"ha":796,"x_min":0,"x_max":0,"o":"m 376 800 l 296 800 l 464 1000 l 574 975 m 397 735 b 689 438 593 735 689 611 l 689 0 l 585 0 l 585 113 b 332 -17 533 28 426 -17 b 69 213 181 -17 69 71 b 351 451 69 356 197 451 b 585 411 429 451 511 435 l 585 438 b 390 646 585 535 546 646 b 181 581 318 646 246 614 l 139 665 b 397 735 242 717 328 735 m 350 75 b 585 225 444 75 557 124 l 585 335 b 368 364 519 353 446 364 b 171 217 261 364 171 303 b 350 75 171 128 249 75 "},"ă":{"ha":796,"x_min":0,"x_max":0,"o":"m 610 901 b 407 818 554 846 481 818 b 204 901 333 818 261 846 l 269 967 b 407 908 307 931 358 908 b 544 967 456 908 507 931 l 610 901 m 397 735 b 689 438 593 735 689 611 l 689 0 l 585 0 l 585 113 b 332 -17 533 28 426 -17 b 69 213 181 -17 69 71 b 351 451 69 356 197 451 b 585 411 429 451 511 435 l 585 438 b 390 646 585 535 546 646 b 181 581 318 646 246 614 l 139 665 b 397 735 242 717 328 735 m 350 75 b 585 225 444 75 557 124 l 585 335 b 368 364 519 353 446 364 b 171 217 261 364 171 303 b 350 75 171 128 249 75 "},"â":{"ha":796,"x_min":0,"x_max":0,"o":"m 299 800 l 219 800 l 358 990 l 456 990 l 597 800 l 517 800 l 407 919 m 397 735 b 689 438 593 735 689 611 l 689 0 l 585 0 l 585 113 b 332 -17 533 28 426 -17 b 69 213 181 -17 69 71 b 351 451 69 356 197 451 b 585 411 429 451 511 435 l 585 438 b 390 646 585 535 546 646 b 181 581 318 646 246 614 l 139 665 b 397 735 242 717 328 735 m 350 75 b 585 225 444 75 557 124 l 585 335 b 368 364 519 353 446 364 b 171 217 261 364 171 303 b 350 75 171 128 249 75 "},"ä":{"ha":796,"x_min":0,"x_max":0,"o":"m 274 829 b 210 893 238 829 210 858 b 274 957 210 926 238 957 b 338 893 308 957 338 926 b 274 829 338 858 308 829 m 540 829 b 476 893 504 829 476 858 b 540 957 476 926 504 957 b 604 893 575 957 604 926 b 540 829 604 858 575 829 m 397 735 b 689 438 593 735 689 611 l 689 0 l 585 0 l 585 113 b 332 -17 533 28 426 -17 b 69 213 181 -17 69 71 b 351 451 69 356 197 451 b 585 411 429 451 511 435 l 585 438 b 390 646 585 535 546 646 b 181 581 318 646 246 614 l 139 665 b 397 735 242 717 328 735 m 350 75 b 585 225 444 75 557 124 l 585 335 b 368 364 519 353 446 364 b 171 217 261 364 171 303 b 350 75 171 128 249 75 "},"à":{"ha":796,"x_min":0,"x_max":0,"o":"m 424 800 l 226 975 l 336 1000 l 504 800 m 397 735 b 689 438 593 735 689 611 l 689 0 l 585 0 l 585 113 b 332 -17 533 28 426 -17 b 69 213 181 -17 69 71 b 351 451 69 356 197 451 b 585 411 429 451 511 435 l 585 438 b 390 646 585 535 546 646 b 181 581 318 646 246 614 l 139 665 b 397 735 242 717 328 735 m 350 75 b 585 225 444 75 557 124 l 585 335 b 368 364 519 353 446 364 b 171 217 261 364 171 303 b 350 75 171 128 249 75 "},"ā":{"ha":796,"x_min":0,"x_max":0,"o":"m 622 825 l 192 825 l 192 901 l 622 901 m 397 735 b 689 438 593 735 689 611 l 689 0 l 585 0 l 585 113 b 332 -17 533 28 426 -17 b 69 213 181 -17 69 71 b 351 451 69 356 197 451 b 585 411 429 451 511 435 l 585 438 b 390 646 585 535 546 646 b 181 581 318 646 246 614 l 139 665 b 397 735 242 717 328 735 m 350 75 b 585 225 444 75 557 124 l 585 335 b 368 364 519 353 446 364 b 171 217 261 364 171 303 b 350 75 171 128 249 75 "},"ą":{"ha":796,"x_min":0,"x_max":0,"o":"m 799 -200 b 682 -240 767 -226 726 -240 b 531 -92 593 -240 531 -185 b 585 15 531 -47 554 -6 l 585 113 b 332 -17 533 28 426 -17 b 69 213 181 -17 69 71 b 351 451 69 356 197 451 b 585 411 429 451 511 435 l 585 438 b 390 646 585 535 546 646 b 181 581 318 646 246 614 l 139 665 b 397 735 242 717 328 735 b 689 438 593 735 689 611 l 689 0 b 608 -79 642 0 608 -33 b 689 -158 608 -128 638 -158 b 754 -132 718 -158 740 -147 m 350 75 b 585 225 444 75 557 124 l 585 335 b 368 364 519 353 446 364 b 171 217 261 364 171 303 b 350 75 171 128 249 75 "},"å":{"ha":796,"x_min":0,"x_max":0,"o":"m 407 818 b 264 961 328 818 264 882 b 407 1104 264 1040 328 1104 b 550 961 486 1104 550 1040 b 407 818 550 882 486 818 m 407 1043 b 325 961 363 1043 325 1006 b 407 879 325 917 363 879 b 489 961 451 879 489 917 b 407 1043 489 1006 451 1043 m 397 735 b 689 438 593 735 689 611 l 689 0 l 585 0 l 585 113 b 332 -17 533 28 426 -17 b 69 213 181 -17 69 71 b 351 451 69 356 197 451 b 585 411 429 451 511 435 l 585 438 b 390 646 585 535 546 646 b 181 581 318 646 246 614 l 139 665 b 397 735 242 717 328 735 m 350 75 b 585 225 444 75 557 124 l 585 335 b 368 364 519 353 446 364 b 171 217 261 364 171 303 b 350 75 171 128 249 75 "},"ã":{"ha":796,"x_min":0,"x_max":0,"o":"m 317 890 b 247 796 281 890 258 863 l 183 806 b 317 971 197 911 240 971 b 496 879 399 971 439 879 b 565 974 532 879 554 907 l 629 964 b 496 799 615 858 572 799 b 317 890 414 799 374 890 m 397 735 b 689 438 593 735 689 611 l 689 0 l 585 0 l 585 113 b 332 -17 533 28 426 -17 b 69 213 181 -17 69 71 b 351 451 69 356 197 451 b 585 411 429 451 511 435 l 585 438 b 390 646 585 535 546 646 b 181 581 318 646 246 614 l 139 665 b 397 735 242 717 328 735 m 350 75 b 585 225 444 75 557 124 l 585 335 b 368 364 519 353 446 364 b 171 217 261 364 171 303 b 350 75 171 128 249 75 "},"æ":{"ha":1344,"x_min":0,"x_max":0,"o":"m 947 76 b 1174 163 1032 76 1129 114 l 1238 94 b 949 -17 1175 26 1049 -17 b 647 149 828 -17 714 46 b 346 -17 588 51 474 -17 b 69 213 172 -17 69 68 b 351 451 69 356 197 451 b 585 411 429 451 511 435 l 585 438 b 390 646 585 535 546 646 b 181 581 318 646 246 614 l 139 665 b 397 735 242 717 328 735 b 657 590 529 735 615 679 b 939 735 722 679 825 735 b 1279 319 1156 735 1279 571 l 692 319 b 947 76 707 179 806 76 m 943 642 b 693 413 815 642 713 551 l 1176 413 b 943 642 1163 542 1086 642 m 364 75 b 585 282 483 75 585 169 l 585 335 b 368 364 519 353 446 364 b 171 217 261 364 171 303 b 364 75 171 128 243 75 "},"b":{"ha":886,"x_min":0,"x_max":0,"o":"m 481 735 b 811 360 669 735 811 579 b 481 -17 811 139 669 -17 b 219 135 365 -17 274 40 l 219 0 l 115 0 l 115 971 l 219 971 l 219 583 b 481 735 274 678 365 735 m 461 76 b 701 360 601 76 701 194 b 461 642 701 525 601 642 b 219 360 319 642 219 525 b 461 76 219 194 319 76 "},"c":{"ha":753,"x_min":0,"x_max":0,"o":"m 439 -17 b 67 360 238 -17 67 156 b 439 735 67 564 238 735 b 694 629 536 735 626 694 l 622 558 b 439 642 575 610 510 642 b 176 360 296 642 176 513 b 439 76 176 206 296 76 b 626 164 511 76 578 110 l 699 93 b 439 -17 631 25 539 -17 "},"ć":{"ha":753,"x_min":0,"x_max":0,"o":"m 468 1000 l 578 975 l 381 800 l 300 800 m 439 -17 b 67 360 238 -17 67 156 b 439 735 67 564 238 735 b 694 629 536 735 626 694 l 622 558 b 439 642 575 610 510 642 b 176 360 296 642 176 513 b 439 76 176 206 296 76 b 626 164 511 76 578 110 l 699 93 b 439 -17 631 25 539 -17 "},"č":{"ha":753,"x_min":0,"x_max":0,"o":"m 224 990 l 303 990 l 411 871 l 521 990 l 601 990 l 460 800 l 363 800 m 439 -17 b 67 360 238 -17 67 156 b 439 735 67 564 238 735 b 694 629 536 735 626 694 l 622 558 b 439 642 575 610 510 642 b 176 360 296 642 176 513 b 439 76 176 206 296 76 b 626 164 511 76 578 110 l 699 93 b 439 -17 631 25 539 -17 "},"ç":{"ha":753,"x_min":0,"x_max":0,"o":"m 458 -62 b 554 -154 514 -62 554 -100 b 418 -267 554 -222 494 -267 b 296 -228 369 -267 324 -250 l 322 -169 b 413 -201 350 -192 382 -201 b 482 -149 453 -201 482 -179 b 428 -101 482 -122 465 -101 b 381 -117 411 -101 393 -107 l 358 -93 l 392 -14 b 67 360 211 11 67 172 b 439 735 67 564 238 735 b 694 629 536 735 626 694 l 622 558 b 439 642 575 610 510 642 b 176 360 296 642 176 513 b 439 76 176 206 296 76 b 626 164 511 76 578 110 l 699 93 b 464 -15 636 31 554 -10 l 443 -64 b 458 -62 449 -62 453 -62 "},"d":{"ha":886,"x_min":0,"x_max":0,"o":"m 771 971 l 771 0 l 667 0 l 667 135 b 406 -17 613 40 521 -17 b 75 360 217 -17 75 139 b 406 735 75 579 217 735 b 667 583 521 735 613 678 l 667 971 m 425 76 b 667 360 567 76 667 194 b 425 642 667 525 567 642 b 185 360 285 642 185 525 b 425 76 185 194 285 76 "},"ð":{"ha":871,"x_min":0,"x_max":0,"o":"m 542 844 b 788 374 703 694 788 554 b 438 -17 788 144 643 -17 b 83 344 231 -17 83 133 b 407 692 83 547 218 692 b 639 579 504 692 579 650 b 451 804 597 660 531 735 l 282 729 l 244 815 l 371 871 b 258 951 333 899 296 926 l 364 994 b 465 914 400 967 433 940 l 603 975 l 640 889 l 542 844 m 438 78 b 678 340 578 78 678 186 b 433 600 678 483 583 600 b 192 343 292 600 192 493 b 438 78 192 188 293 78 "},"ď":{"ha":886,"x_min":0,"x_max":0,"o":"m 667 971 l 771 971 l 771 0 l 667 0 l 667 135 b 406 -17 613 40 521 -17 b 75 360 217 -17 75 139 b 406 735 75 579 217 735 b 667 583 521 735 613 678 m 939 971 b 1011 876 983 971 1011 932 b 921 703 1011 831 990 792 l 876 735 b 938 844 908 771 929 807 b 875 908 903 844 875 874 b 939 971 875 942 903 971 m 425 76 b 667 360 567 76 667 194 b 425 642 667 525 567 642 b 185 360 285 642 185 525 b 425 76 185 194 285 76 "},"đ":{"ha":913,"x_min":0,"x_max":0,"o":"m 861 813 l 771 813 l 771 0 l 667 0 l 667 135 b 406 -17 613 40 521 -17 b 75 360 217 -17 75 139 b 406 735 75 579 217 735 b 667 583 521 735 613 678 l 667 813 l 431 813 l 431 882 l 667 882 l 667 971 l 771 971 l 771 882 l 861 882 m 425 76 b 667 360 567 76 667 194 b 425 642 667 525 567 642 b 185 360 285 642 185 525 b 425 76 185 194 285 76 "},"e":{"ha":826,"x_min":0,"x_max":0,"o":"m 429 76 b 656 163 514 76 611 114 l 719 94 b 431 -17 657 26 531 -17 b 67 361 239 -17 67 140 b 421 735 67 575 228 735 b 761 319 638 735 761 571 l 174 319 b 429 76 189 179 288 76 m 425 642 b 175 413 297 642 194 551 l 658 413 b 425 642 644 542 568 642 "},"é":{"ha":826,"x_min":0,"x_max":0,"o":"m 390 800 l 310 800 l 478 1000 l 588 975 m 429 76 b 656 163 514 76 611 114 l 719 94 b 431 -17 657 26 531 -17 b 67 361 239 -17 67 140 b 421 735 67 575 228 735 b 761 319 638 735 761 571 l 174 319 b 429 76 189 179 288 76 m 425 642 b 175 413 297 642 194 551 l 658 413 b 425 642 644 542 568 642 "},"ě":{"ha":826,"x_min":0,"x_max":0,"o":"m 372 800 l 233 990 l 313 990 l 421 871 l 531 990 l 611 990 l 469 800 m 429 76 b 656 163 514 76 611 114 l 719 94 b 431 -17 657 26 531 -17 b 67 361 239 -17 67 140 b 421 735 67 575 228 735 b 761 319 638 735 761 571 l 174 319 b 429 76 189 179 288 76 m 425 642 b 175 413 297 642 194 551 l 658 413 b 425 642 644 542 568 642 "},"ê":{"ha":826,"x_min":0,"x_max":0,"o":"m 313 800 l 233 800 l 372 990 l 469 990 l 611 800 l 531 800 l 421 919 m 429 76 b 656 163 514 76 611 114 l 719 94 b 431 -17 657 26 531 -17 b 67 361 239 -17 67 140 b 421 735 67 575 228 735 b 761 319 638 735 761 571 l 174 319 b 429 76 189 179 288 76 m 425 642 b 175 413 297 642 194 551 l 658 413 b 425 642 644 542 568 642 "},"ë":{"ha":826,"x_min":0,"x_max":0,"o":"m 288 829 b 224 893 251 829 224 858 b 288 957 224 926 251 957 b 351 893 322 957 351 926 b 288 829 351 858 322 829 m 554 829 b 490 893 518 829 490 858 b 554 957 490 926 518 957 b 618 893 589 957 618 926 b 554 829 618 858 589 829 m 429 76 b 656 163 514 76 611 114 l 719 94 b 431 -17 657 26 531 -17 b 67 361 239 -17 67 140 b 421 735 67 575 228 735 b 761 319 638 735 761 571 l 174 319 b 429 76 189 179 288 76 m 425 642 b 175 413 297 642 194 551 l 658 413 b 425 642 644 542 568 642 "},"ė":{"ha":826,"x_min":0,"x_max":0,"o":"m 421 829 b 357 893 385 829 357 858 b 421 957 357 926 385 957 b 485 893 456 957 485 926 b 421 829 485 858 456 829 m 429 76 b 656 163 514 76 611 114 l 719 94 b 431 -17 657 26 531 -17 b 67 361 239 -17 67 140 b 421 735 67 575 228 735 b 761 319 638 735 761 571 l 174 319 b 429 76 189 179 288 76 m 425 642 b 175 413 297 642 194 551 l 658 413 b 425 642 644 542 568 642 "},"ẹ":{"ha":826,"x_min":0,"x_max":0,"o":"m 429 76 b 656 163 514 76 611 114 l 719 94 b 431 -17 657 26 531 -17 b 67 361 239 -17 67 140 b 421 735 67 575 228 735 b 761 319 638 735 761 571 l 174 319 b 429 76 189 179 288 76 m 425 642 b 175 413 297 642 194 551 l 658 413 b 425 642 644 542 568 642 m 421 -112 b 485 -176 456 -112 485 -143 b 421 -240 485 -211 456 -240 b 357 -176 385 -240 357 -211 b 421 -112 357 -143 385 -112 "},"è":{"ha":826,"x_min":0,"x_max":0,"o":"m 438 800 l 240 975 l 350 1000 l 518 800 m 429 76 b 656 163 514 76 611 114 l 719 94 b 431 -17 657 26 531 -17 b 67 361 239 -17 67 140 b 421 735 67 575 228 735 b 761 319 638 735 761 571 l 174 319 b 429 76 189 179 288 76 m 425 642 b 175 413 297 642 194 551 l 658 413 b 425 642 644 542 568 642 "},"ē":{"ha":826,"x_min":0,"x_max":0,"o":"m 636 825 l 206 825 l 206 901 l 636 901 m 429 76 b 656 163 514 76 611 114 l 719 94 b 431 -17 657 26 531 -17 b 67 361 239 -17 67 140 b 421 735 67 575 228 735 b 761 319 638 735 761 571 l 174 319 b 429 76 189 179 288 76 m 425 642 b 175 413 297 642 194 551 l 658 413 b 425 642 644 542 568 642 "},"ę":{"ha":826,"x_min":0,"x_max":0,"o":"m 554 1 b 529 -57 539 -12 529 -33 b 610 -136 529 -106 558 -136 b 675 -110 639 -136 661 -125 l 719 -178 b 603 -218 688 -204 647 -218 b 451 -69 514 -218 451 -162 b 463 -15 451 -50 456 -32 b 431 -17 451 -17 442 -17 b 67 361 239 -17 67 140 b 421 735 67 575 228 735 b 761 319 638 735 761 571 l 174 319 b 429 76 189 179 288 76 b 656 163 514 76 611 114 l 719 94 b 554 1 681 53 619 21 m 425 642 b 175 413 297 642 194 551 l 658 413 b 425 642 644 542 568 642 "},"ẽ":{"ha":826,"x_min":0,"x_max":0,"o":"m 331 890 b 261 796 294 890 272 863 l 197 806 b 331 971 211 911 254 971 b 510 879 413 971 453 879 b 579 974 546 879 568 907 l 643 964 b 510 799 629 858 586 799 b 331 890 428 799 388 890 m 429 76 b 656 163 514 76 611 114 l 719 94 b 431 -17 657 26 531 -17 b 67 361 239 -17 67 140 b 421 735 67 575 228 735 b 761 319 638 735 761 571 l 174 319 b 429 76 189 179 288 76 m 425 642 b 175 413 297 642 194 551 l 658 413 b 425 642 644 542 568 642 "},"f":{"ha":488,"x_min":0,"x_max":0,"o":"m 268 718 l 444 718 l 444 625 l 268 625 l 268 0 l 164 0 l 164 625 l 51 625 l 51 718 l 164 718 l 164 817 b 339 1000 164 924 236 1000 b 472 954 388 1000 435 983 l 421 878 b 346 907 406 894 378 907 b 268 817 304 907 268 869 "},"g":{"ha":883,"x_min":0,"x_max":0,"o":"m 768 718 l 768 76 b 415 -239 768 -108 622 -239 b 125 -143 299 -239 190 -199 l 171 -61 b 401 -146 226 -114 313 -146 b 664 76 567 -146 664 -64 l 664 193 b 403 53 608 106 517 53 b 72 394 210 53 72 194 b 403 735 72 594 210 735 b 664 594 517 735 608 682 l 664 718 m 422 146 b 664 394 564 146 664 249 b 422 642 664 539 564 642 b 182 394 282 642 182 539 b 422 146 182 249 282 146 "},"ğ":{"ha":883,"x_min":0,"x_max":0,"o":"m 654 901 b 451 818 599 846 525 818 b 249 901 378 818 306 846 l 314 967 b 451 908 351 931 403 908 b 589 967 500 908 551 931 l 654 901 m 768 718 l 768 76 b 415 -239 768 -108 622 -239 b 125 -143 299 -239 190 -199 l 171 -61 b 401 -146 226 -114 313 -146 b 664 76 567 -146 664 -64 l 664 193 b 403 53 608 106 517 53 b 72 394 210 53 72 194 b 403 735 72 594 210 735 b 664 594 517 735 608 682 l 664 718 m 422 146 b 664 394 564 146 664 249 b 422 642 664 539 564 642 b 182 394 282 642 182 539 b 422 146 182 249 282 146 "},"ģ":{"ha":883,"x_min":0,"x_max":0,"o":"m 433 831 b 361 925 389 831 361 869 b 451 1099 361 971 382 1010 l 496 1067 b 435 957 464 1031 443 994 b 497 893 469 957 497 928 b 433 831 497 860 469 831 m 768 718 l 768 76 b 415 -239 768 -108 622 -239 b 125 -143 299 -239 190 -199 l 171 -61 b 401 -146 226 -114 313 -146 b 664 76 567 -146 664 -64 l 664 193 b 403 53 608 106 517 53 b 72 394 210 53 72 194 b 403 735 72 594 210 735 b 664 594 517 735 608 682 l 664 718 m 422 146 b 664 394 564 146 664 249 b 422 642 664 539 564 642 b 182 394 282 642 182 539 b 422 146 182 249 282 146 "},"h":{"ha":822,"x_min":0,"x_max":0,"o":"m 447 735 b 717 457 606 735 717 619 l 717 0 l 613 0 l 613 443 b 433 642 613 560 539 642 b 211 457 313 642 211 557 l 211 0 l 107 0 l 107 971 l 211 971 l 211 603 b 447 735 253 679 346 735 "},"i":{"ha":313,"x_min":0,"x_max":0,"o":"m 157 849 b 88 918 118 849 88 881 b 157 986 88 954 118 986 b 225 918 194 986 225 954 b 157 849 225 881 194 849 m 104 718 l 208 718 l 208 0 l 104 0 "},"ı":{"ha":313,"x_min":0,"x_max":0,"o":"m 104 718 l 208 718 l 208 0 l 104 0 "},"í":{"ha":313,"x_min":0,"x_max":0,"o":"m 283 1000 l 393 975 l 196 800 l 115 800 m 104 718 l 208 718 l 208 0 l 104 0 "},"î":{"ha":313,"x_min":0,"x_max":0,"o":"m 108 990 l 206 990 l 347 800 l 267 800 l 157 919 l 49 800 l -31 800 m 104 718 l 208 718 l 208 0 l 104 0 "},"ï":{"ha":313,"x_min":0,"x_max":0,"o":"m 24 829 b -40 893 -12 829 -40 858 b 24 957 -40 926 -12 957 b 88 893 58 957 88 926 b 24 829 88 858 58 829 m 290 829 b 226 893 254 829 226 858 b 290 957 226 926 254 957 b 354 893 325 957 354 926 b 290 829 354 858 325 829 m 104 718 l 208 718 l 208 0 l 104 0 "},"ì":{"ha":313,"x_min":0,"x_max":0,"o":"m -79 975 l 31 1000 l 199 800 l 118 800 m 104 718 l 208 718 l 208 0 l 104 0 "},"ī":{"ha":313,"x_min":0,"x_max":0,"o":"m -58 901 l 372 901 l 372 825 l -58 825 m 104 718 l 208 718 l 208 0 l 104 0 "},"į":{"ha":313,"x_min":0,"x_max":0,"o":"m 157 829 b 93 893 121 829 93 858 b 157 957 93 926 121 957 b 221 893 192 957 221 926 b 157 829 221 858 192 829 m 267 -200 b 150 -240 235 -226 194 -240 b -1 -92 61 -240 -1 -185 b 72 26 -1 -37 32 10 l 104 17 l 104 718 l 208 718 l 208 0 l 157 0 b 76 -79 110 0 76 -33 b 157 -158 76 -128 106 -158 b 222 -132 186 -158 208 -147 "},"j":{"ha":313,"x_min":0,"x_max":0,"o":"m 157 849 b 88 918 118 849 88 881 b 157 986 88 954 118 986 b 225 918 194 986 225 954 b 157 849 225 881 194 849 m 33 -247 b -79 -225 -6 -247 -51 -237 l -62 -139 b 26 -154 -40 -147 -3 -154 b 104 -64 72 -154 104 -117 l 104 718 l 208 718 l 208 -64 b 33 -247 208 -171 136 -247 "},"ȷ":{"ha":313,"x_min":0,"x_max":0,"o":"m 33 -247 b -79 -225 -6 -247 -51 -237 l -62 -139 b 26 -154 -40 -147 -3 -154 b 104 -64 72 -154 104 -117 l 104 718 l 208 718 l 208 -64 b 33 -247 208 -171 136 -247 "},"k":{"ha":754,"x_min":0,"x_max":0,"o":"m 411 389 l 717 0 l 586 0 l 338 318 l 208 190 l 208 0 l 104 0 l 104 971 l 208 971 l 208 321 l 601 718 l 735 718 "},"ķ":{"ha":754,"x_min":0,"x_max":0,"o":"m 411 389 l 717 0 l 586 0 l 338 318 l 208 190 l 208 0 l 104 0 l 104 971 l 208 971 l 208 321 l 601 718 l 735 718 m 383 -114 b 456 -208 428 -114 456 -153 b 365 -382 456 -254 435 -293 l 321 -350 b 382 -240 353 -314 374 -278 b 319 -176 347 -240 319 -211 b 383 -114 319 -143 347 -114 "},"l":{"ha":315,"x_min":0,"x_max":0,"o":"m 106 971 l 210 971 l 210 0 l 106 0 "},"ĺ":{"ha":315,"x_min":0,"x_max":0,"o":"m 286 1253 l 396 1228 l 199 1053 l 118 1053 m 106 971 l 210 971 l 210 0 l 106 0 "},"ľ":{"ha":315,"x_min":0,"x_max":0,"o":"m 106 971 l 210 971 l 210 0 l 106 0 m 315 735 b 376 844 347 771 368 807 b 314 908 342 844 314 874 b 378 971 314 942 342 971 b 450 876 422 971 450 932 b 360 703 450 831 429 792 "},"ł":{"ha":426,"x_min":0,"x_max":0,"o":"m 375 492 l 261 433 l 261 0 l 157 0 l 157 379 l 51 325 l 51 429 l 157 483 l 157 971 l 261 971 l 261 538 l 375 596 "},"m":{"ha":1243,"x_min":0,"x_max":0,"o":"m 882 735 b 1138 457 1032 735 1138 619 l 1138 0 l 1033 0 l 1033 443 b 868 642 1033 560 965 642 b 674 457 754 642 674 565 l 674 0 l 569 0 l 569 443 b 404 642 569 560 501 642 b 210 457 290 642 210 565 l 210 0 l 106 0 l 106 718 l 210 718 l 210 613 b 418 735 246 688 324 735 b 650 582 526 735 611 675 b 882 735 679 675 774 735 "},"n":{"ha":822,"x_min":0,"x_max":0,"o":"m 447 735 b 717 457 606 735 717 619 l 717 0 l 613 0 l 613 443 b 433 642 613 560 539 642 b 211 457 313 642 211 557 l 211 0 l 107 0 l 107 718 l 211 718 l 211 603 b 447 735 253 679 346 735 "},"ń":{"ha":822,"x_min":0,"x_max":0,"o":"m 404 800 l 324 800 l 492 1000 l 601 975 m 447 735 b 717 457 606 735 717 619 l 717 0 l 613 0 l 613 443 b 433 642 613 560 539 642 b 211 457 313 642 211 557 l 211 0 l 107 0 l 107 718 l 211 718 l 211 603 b 447 735 253 679 346 735 "},"ň":{"ha":822,"x_min":0,"x_max":0,"o":"m 386 800 l 247 990 l 326 990 l 435 871 l 544 990 l 625 990 l 483 800 m 447 735 b 717 457 606 735 717 619 l 717 0 l 613 0 l 613 443 b 433 642 613 560 539 642 b 211 457 313 642 211 557 l 211 0 l 107 0 l 107 718 l 211 718 l 211 603 b 447 735 253 679 346 735 "},"ņ":{"ha":822,"x_min":0,"x_max":0,"o":"m 447 735 b 717 457 606 735 717 619 l 717 0 l 613 0 l 613 443 b 433 642 613 560 539 642 b 211 457 313 642 211 557 l 211 0 l 107 0 l 107 718 l 211 718 l 211 603 b 447 735 253 679 346 735 m 435 -114 b 507 -208 479 -114 507 -153 b 417 -382 507 -254 486 -293 l 372 -350 b 433 -240 404 -314 425 -278 b 371 -176 399 -240 371 -211 b 435 -114 371 -143 399 -114 "},"ñ":{"ha":822,"x_min":0,"x_max":0,"o":"m 344 890 b 275 796 308 890 286 863 l 211 806 b 344 971 225 911 268 971 b 524 879 426 971 467 879 b 593 974 560 879 582 907 l 657 964 b 524 799 643 858 600 799 b 344 890 442 799 401 890 m 447 735 b 717 457 606 735 717 619 l 717 0 l 613 0 l 613 443 b 433 642 613 560 539 642 b 211 457 313 642 211 557 l 211 0 l 107 0 l 107 718 l 211 718 l 211 603 b 447 735 253 679 346 735 "},"o":{"ha":876,"x_min":0,"x_max":0,"o":"m 439 -17 b 67 360 238 -17 67 156 b 439 735 67 564 238 735 b 810 360 640 735 810 564 b 439 -17 810 156 640 -17 m 439 76 b 700 360 581 76 700 206 b 439 642 700 513 581 642 b 176 360 296 642 176 513 b 439 76 176 206 296 76 "},"ó":{"ha":876,"x_min":0,"x_max":0,"o":"m 496 1000 l 606 975 l 408 800 l 328 800 m 439 -17 b 67 360 238 -17 67 156 b 439 735 67 564 238 735 b 810 360 640 735 810 564 b 439 -17 810 156 640 -17 m 439 76 b 700 360 581 76 700 206 b 439 642 700 513 581 642 b 176 360 296 642 176 513 b 439 76 176 206 296 76 "},"ô":{"ha":876,"x_min":0,"x_max":0,"o":"m 390 990 l 488 990 l 629 800 l 549 800 l 439 919 l 331 800 l 251 800 m 439 -17 b 67 360 238 -17 67 156 b 439 735 67 564 238 735 b 810 360 640 735 810 564 b 439 -17 810 156 640 -17 m 439 76 b 700 360 581 76 700 206 b 439 642 700 513 581 642 b 176 360 296 642 176 513 b 439 76 176 206 296 76 "},"ö":{"ha":876,"x_min":0,"x_max":0,"o":"m 306 829 b 242 893 269 829 242 858 b 306 957 242 926 269 957 b 369 893 340 957 369 926 b 306 829 369 858 340 829 m 572 829 b 508 893 536 829 508 858 b 572 957 508 926 536 957 b 636 893 607 957 636 926 b 572 829 636 858 607 829 m 439 -17 b 67 360 238 -17 67 156 b 439 735 67 564 238 735 b 810 360 640 735 810 564 b 439 -17 810 156 640 -17 m 439 76 b 700 360 581 76 700 206 b 439 642 700 513 581 642 b 176 360 296 642 176 513 b 439 76 176 206 296 76 "},"ò":{"ha":876,"x_min":0,"x_max":0,"o":"m 258 975 l 368 1000 l 536 800 l 456 800 m 439 -17 b 67 360 238 -17 67 156 b 439 735 67 564 238 735 b 810 360 640 735 810 564 b 439 -17 810 156 640 -17 m 439 76 b 700 360 581 76 700 206 b 439 642 700 513 581 642 b 176 360 296 642 176 513 b 439 76 176 206 296 76 "},"ő":{"ha":876,"x_min":0,"x_max":0,"o":"m 419 1000 l 529 975 l 332 799 l 251 799 m 697 997 l 807 972 l 610 799 l 529 799 m 439 -17 b 67 360 238 -17 67 156 b 439 735 67 564 238 735 b 810 360 640 735 810 564 b 439 -17 810 156 640 -17 m 439 76 b 700 360 581 76 700 206 b 439 642 700 513 581 642 b 176 360 296 642 176 513 b 439 76 176 206 296 76 "},"ō":{"ha":876,"x_min":0,"x_max":0,"o":"m 224 901 l 654 901 l 654 825 l 224 825 m 439 -17 b 67 360 238 -17 67 156 b 439 735 67 564 238 735 b 810 360 640 735 810 564 b 439 -17 810 156 640 -17 m 439 76 b 700 360 581 76 700 206 b 439 642 700 513 581 642 b 176 360 296 642 176 513 b 439 76 176 206 296 76 "},"ø":{"ha":876,"x_min":0,"x_max":0,"o":"m 713 610 b 810 360 772 543 810 456 b 439 -17 810 156 640 -17 b 233 47 364 -17 293 7 l 193 0 l 75 0 l 167 107 b 67 360 104 174 67 264 b 439 735 67 564 238 735 b 646 669 515 735 586 710 l 688 718 l 806 718 l 713 610 m 176 360 b 233 186 176 294 197 233 l 582 594 b 439 642 540 624 492 642 b 176 360 296 642 176 513 m 439 76 b 700 360 581 76 700 206 b 646 531 700 424 679 482 l 297 122 b 439 76 339 93 388 76 "},"õ":{"ha":876,"x_min":0,"x_max":0,"o":"m 528 799 b 349 890 446 799 406 890 b 279 796 313 890 290 863 l 215 806 b 349 971 229 911 272 971 b 528 879 431 971 471 879 b 597 974 564 879 586 907 l 661 964 b 528 799 647 858 604 799 m 439 -17 b 67 360 238 -17 67 156 b 439 735 67 564 238 735 b 810 360 640 735 810 564 b 439 -17 810 156 640 -17 m 439 76 b 700 360 581 76 700 206 b 439 642 700 513 581 642 b 176 360 296 642 176 513 b 439 76 176 206 296 76 "},"œ":{"ha":1461,"x_min":0,"x_max":0,"o":"m 1064 76 b 1290 163 1149 76 1246 114 l 1354 94 b 1065 -17 1292 26 1165 -17 b 754 164 938 -17 819 53 b 439 -17 688 57 569 -17 b 67 360 238 -17 67 156 b 439 735 67 564 238 735 b 753 557 569 735 686 663 b 1056 735 815 665 928 735 b 1396 319 1272 735 1396 571 l 808 319 b 1064 76 824 179 922 76 m 439 76 b 700 360 581 76 700 206 b 439 642 700 513 581 642 b 176 360 296 642 176 513 b 439 76 176 206 296 76 m 1060 642 b 810 413 932 642 829 551 l 1293 413 b 1060 642 1279 542 1203 642 "},"p":{"ha":886,"x_min":0,"x_max":0,"o":"m 481 735 b 811 360 669 735 811 579 b 481 -17 811 139 669 -17 b 219 135 365 -17 274 40 l 219 -239 l 115 -239 l 115 718 l 219 718 l 219 583 b 481 735 274 678 365 735 m 461 76 b 701 360 601 76 701 194 b 461 642 701 525 601 642 b 219 360 319 642 219 525 b 461 76 219 194 319 76 "},"þ":{"ha":886,"x_min":0,"x_max":0,"o":"m 481 735 b 811 360 669 735 811 579 b 481 -17 811 139 669 -17 b 219 135 365 -17 274 40 l 219 -239 l 115 -239 l 115 971 l 219 971 l 219 583 b 481 735 274 678 365 735 m 461 76 b 701 360 601 76 701 194 b 461 642 701 525 601 642 b 219 360 319 642 219 525 b 461 76 219 194 319 76 "},"q":{"ha":886,"x_min":0,"x_max":0,"o":"m 771 718 l 771 -239 l 667 -239 l 667 135 b 406 -17 613 40 521 -17 b 75 360 217 -17 75 139 b 406 735 75 579 217 735 b 667 583 521 735 613 678 l 667 718 m 425 76 b 667 360 567 76 667 194 b 425 642 667 525 567 642 b 185 360 285 642 185 525 b 425 76 185 194 285 76 "},"r":{"ha":536,"x_min":0,"x_max":0,"o":"m 219 578 b 497 735 263 674 365 735 l 497 642 b 219 401 335 642 219 542 l 219 0 l 115 0 l 115 718 l 219 718 l 219 578 "},"ŕ":{"ha":536,"x_min":0,"x_max":0,"o":"m 283 800 l 203 800 l 371 1000 l 481 975 m 219 578 b 497 735 263 674 365 735 l 497 642 b 219 401 335 642 219 542 l 219 0 l 115 0 l 115 718 l 219 718 l 219 578 "},"ř":{"ha":536,"x_min":0,"x_max":0,"o":"m 265 800 l 126 990 l 206 990 l 314 871 l 424 990 l 504 990 l 363 800 m 219 578 b 497 735 263 674 365 735 l 497 642 b 219 401 335 642 219 542 l 219 0 l 115 0 l 115 718 l 219 718 l 219 578 "},"ŗ":{"ha":536,"x_min":0,"x_max":0,"o":"m 219 578 b 497 735 263 674 365 735 l 497 642 b 219 401 335 642 219 542 l 219 0 l 115 0 l 115 718 l 219 718 l 219 578 m 219 -114 b 292 -208 264 -114 292 -153 b 201 -382 292 -254 271 -293 l 157 -350 b 218 -240 189 -314 210 -278 b 156 -176 183 -240 156 -211 b 219 -114 156 -143 183 -114 "},"s":{"ha":689,"x_min":0,"x_max":0,"o":"m 360 -17 b 63 90 260 -17 149 21 l 117 167 b 360 76 199 107 281 76 b 518 189 454 76 518 121 b 338 319 518 267 435 292 b 97 524 164 369 97 421 b 349 735 97 654 206 735 b 606 654 438 735 529 704 l 556 574 b 349 642 483 619 413 642 b 201 536 268 642 201 606 b 388 411 201 474 254 454 b 622 200 503 375 622 336 b 360 -17 622 68 508 -17 "},"ś":{"ha":689,"x_min":0,"x_max":0,"o":"m 406 1000 l 515 975 l 318 800 l 238 800 m 360 -17 b 63 90 260 -17 149 21 l 117 167 b 360 76 199 107 281 76 b 518 189 454 76 518 121 b 338 319 518 267 435 292 b 97 524 164 369 97 421 b 349 735 97 654 206 735 b 606 654 438 735 529 704 l 556 574 b 349 642 483 619 413 642 b 201 536 268 642 201 606 b 388 411 201 474 254 454 b 622 200 503 375 622 336 b 360 -17 622 68 508 -17 "},"š":{"ha":689,"x_min":0,"x_max":0,"o":"m 161 990 l 240 990 l 349 871 l 458 990 l 539 990 l 397 800 l 300 800 m 360 -17 b 63 90 260 -17 149 21 l 117 167 b 360 76 199 107 281 76 b 518 189 454 76 518 121 b 338 319 518 267 435 292 b 97 524 164 369 97 421 b 349 735 97 654 206 735 b 606 654 438 735 529 704 l 556 574 b 349 642 483 619 413 642 b 201 536 268 642 201 606 b 388 411 201 474 254 454 b 622 200 503 375 622 336 b 360 -17 622 68 508 -17 "},"ş":{"ha":689,"x_min":0,"x_max":0,"o":"m 622 200 b 382 -17 622 75 519 -8 l 363 -64 b 378 -62 368 -62 372 -62 b 474 -154 433 -62 474 -100 b 338 -267 474 -222 414 -267 b 215 -228 289 -267 243 -250 l 242 -169 b 332 -201 269 -192 301 -201 b 401 -149 372 -201 401 -179 b 347 -101 401 -122 385 -101 b 300 -117 331 -101 313 -107 l 278 -93 l 311 -14 b 63 90 225 -4 135 32 l 117 167 b 360 76 199 107 281 76 b 518 189 454 76 518 121 b 338 319 518 267 435 292 b 97 524 164 369 97 421 b 349 735 97 654 206 735 b 606 654 438 735 529 704 l 556 574 b 349 642 483 619 413 642 b 201 536 268 642 201 606 b 388 411 201 474 254 454 b 622 200 503 375 622 336 "},"ß":{"ha":800,"x_min":0,"x_max":0,"o":"m 117 731 b 407 982 117 878 238 982 b 696 731 576 982 696 878 b 560 507 696 629 646 557 b 733 261 669 451 733 365 b 450 0 733 108 615 0 l 329 0 l 329 99 l 422 99 b 624 275 540 99 624 172 b 422 451 624 378 540 451 l 329 451 l 329 550 l 406 550 b 586 717 511 550 586 628 b 406 883 586 814 511 883 b 225 713 300 883 225 813 l 225 0 l 117 0 "},"t":{"ha":514,"x_min":0,"x_max":0,"o":"m 472 29 b 339 -17 435 0 388 -17 b 164 167 236 -17 164 60 l 164 625 l 51 625 l 51 718 l 164 718 l 164 915 l 268 915 l 268 718 l 444 718 l 444 625 l 268 625 l 268 167 b 346 76 268 114 304 76 b 421 106 378 76 406 89 "},"ť":{"ha":514,"x_min":0,"x_max":0,"o":"m 614 971 b 686 876 658 971 686 932 b 596 703 686 831 665 792 l 551 735 b 613 844 583 771 604 807 b 550 908 578 844 550 874 b 614 971 550 942 578 971 m 346 76 b 421 106 378 76 406 89 l 472 29 b 339 -17 435 0 388 -17 b 164 167 236 -17 164 60 l 164 625 l 51 625 l 51 718 l 164 718 l 164 915 l 268 915 l 268 718 l 444 718 l 444 625 l 268 625 l 268 167 b 346 76 268 114 304 76 "},"ţ":{"ha":514,"x_min":0,"x_max":0,"o":"m 375 -62 b 471 -154 431 -62 471 -100 b 335 -267 471 -222 411 -267 b 213 -228 286 -267 240 -250 l 239 -169 b 329 -201 267 -192 299 -201 b 399 -149 369 -201 399 -179 b 344 -101 399 -122 382 -101 b 297 -117 328 -101 310 -107 l 275 -93 l 308 -14 b 164 167 222 -1 164 71 l 164 625 l 51 625 l 51 718 l 164 718 l 164 915 l 268 915 l 268 718 l 444 718 l 444 625 l 268 625 l 268 167 b 346 76 268 114 304 76 b 421 106 378 76 406 89 l 472 29 b 382 -12 446 8 414 -6 l 360 -64 b 375 -62 365 -62 369 -62 "},"u":{"ha":822,"x_min":0,"x_max":0,"o":"m 715 718 l 715 0 l 611 0 l 611 115 b 375 -17 569 39 476 -17 b 106 261 217 -17 106 99 l 106 718 l 210 718 l 210 275 b 389 76 210 158 283 76 b 611 261 510 76 611 161 l 611 718 "},"ú":{"ha":822,"x_min":0,"x_max":0,"o":"m 379 800 l 299 800 l 467 1000 l 576 975 m 715 718 l 715 0 l 611 0 l 611 115 b 375 -17 569 39 476 -17 b 106 261 217 -17 106 99 l 106 718 l 210 718 l 210 275 b 389 76 210 158 283 76 b 611 261 510 76 611 161 l 611 718 "},"û":{"ha":822,"x_min":0,"x_max":0,"o":"m 301 800 l 222 800 l 361 990 l 458 990 l 600 800 l 519 800 l 410 919 m 715 718 l 715 0 l 611 0 l 611 115 b 375 -17 569 39 476 -17 b 106 261 217 -17 106 99 l 106 718 l 210 718 l 210 275 b 389 76 210 158 283 76 b 611 261 510 76 611 161 l 611 718 "},"ü":{"ha":822,"x_min":0,"x_max":0,"o":"m 276 829 b 213 893 240 829 213 858 b 276 957 213 926 240 957 b 340 893 311 957 340 926 b 276 829 340 858 311 829 m 543 829 b 479 893 507 829 479 858 b 543 957 479 926 507 957 b 607 893 578 957 607 926 b 543 829 607 858 578 829 m 715 718 l 715 0 l 611 0 l 611 115 b 375 -17 569 39 476 -17 b 106 261 217 -17 106 99 l 106 718 l 210 718 l 210 275 b 389 76 210 158 283 76 b 611 261 510 76 611 161 l 611 718 "},"ù":{"ha":822,"x_min":0,"x_max":0,"o":"m 426 800 l 229 975 l 339 1000 l 507 800 m 715 718 l 715 0 l 611 0 l 611 115 b 375 -17 569 39 476 -17 b 106 261 217 -17 106 99 l 106 718 l 210 718 l 210 275 b 389 76 210 158 283 76 b 611 261 510 76 611 161 l 611 718 "},"ű":{"ha":822,"x_min":0,"x_max":0,"o":"m 296 799 l 215 799 l 383 1000 l 493 975 m 493 799 l 661 997 l 771 972 l 574 799 m 611 718 l 715 718 l 715 0 l 611 0 l 611 115 b 375 -17 569 39 476 -17 b 106 261 217 -17 106 99 l 106 718 l 210 718 l 210 275 b 389 76 210 158 283 76 b 611 261 510 76 611 161 "},"ū":{"ha":822,"x_min":0,"x_max":0,"o":"m 625 825 l 194 825 l 194 901 l 625 901 m 715 718 l 715 0 l 611 0 l 611 115 b 375 -17 569 39 476 -17 b 106 261 217 -17 106 99 l 106 718 l 210 718 l 210 275 b 389 76 210 158 283 76 b 611 261 510 76 611 161 l 611 718 "},"ų":{"ha":822,"x_min":0,"x_max":0,"o":"m 825 -200 b 708 -240 793 -226 753 -240 b 557 -92 619 -240 557 -185 b 611 15 557 -47 581 -6 l 611 115 b 375 -17 569 39 476 -17 b 106 261 217 -17 106 99 l 106 718 l 210 718 l 210 275 b 389 76 210 158 283 76 b 611 261 510 76 611 161 l 611 718 l 715 718 l 715 0 b 635 -79 668 0 635 -33 b 715 -158 635 -128 664 -158 b 781 -132 744 -158 767 -147 "},"ů":{"ha":822,"x_min":0,"x_max":0,"o":"m 410 818 b 267 961 331 818 267 882 b 410 1104 267 1040 331 1104 b 553 961 489 1104 553 1040 b 410 818 553 882 489 818 m 410 1043 b 328 961 365 1043 328 1006 b 410 879 328 917 365 879 b 492 961 454 879 492 917 b 410 1043 492 1006 454 1043 m 715 718 l 715 0 l 611 0 l 611 115 b 375 -17 569 39 476 -17 b 106 261 217 -17 106 99 l 106 718 l 210 718 l 210 275 b 389 76 210 158 283 76 b 611 261 510 76 611 161 l 611 718 "},"v":{"ha":782,"x_min":0,"x_max":0,"o":"m 38 718 l 154 718 l 393 122 l 628 718 l 744 718 l 443 0 l 343 0 "},"w":{"ha":1157,"x_min":0,"x_max":0,"o":"m 49 718 l 160 718 l 339 139 l 535 718 l 625 718 l 821 139 l 1000 718 l 1111 718 l 869 0 l 771 0 l 581 574 l 388 0 l 289 0 "},"ẃ":{"ha":1157,"x_min":0,"x_max":0,"o":"m 707 1000 l 817 975 l 619 800 l 539 800 m 49 718 l 160 718 l 339 139 l 535 718 l 625 718 l 821 139 l 1000 718 l 1111 718 l 869 0 l 771 0 l 581 574 l 388 0 l 289 0 "},"ŵ":{"ha":1157,"x_min":0,"x_max":0,"o":"m 532 990 l 629 990 l 771 800 l 690 800 l 581 919 l 472 800 l 393 800 m 49 718 l 160 718 l 339 139 l 535 718 l 625 718 l 821 139 l 1000 718 l 1111 718 l 869 0 l 771 0 l 581 574 l 388 0 l 289 0 "},"ẅ":{"ha":1157,"x_min":0,"x_max":0,"o":"m 447 829 b 383 893 411 829 383 858 b 447 957 383 926 411 957 b 511 893 482 957 511 926 b 447 829 511 858 482 829 m 714 829 b 650 893 678 829 650 858 b 714 957 650 926 678 957 b 778 893 749 957 778 926 b 714 829 778 858 749 829 m 49 718 l 160 718 l 339 139 l 535 718 l 625 718 l 821 139 l 1000 718 l 1111 718 l 869 0 l 771 0 l 581 574 l 388 0 l 289 0 "},"ẁ":{"ha":1157,"x_min":0,"x_max":0,"o":"m 343 975 l 453 1000 l 621 800 l 540 800 m 49 718 l 160 718 l 339 139 l 535 718 l 625 718 l 821 139 l 1000 718 l 1111 718 l 869 0 l 771 0 l 581 574 l 388 0 l 289 0 "},"x":{"ha":765,"x_min":0,"x_max":0,"o":"m 599 0 l 383 286 l 167 0 l 44 0 l 322 367 l 56 718 l 178 718 l 383 447 l 588 718 l 710 718 l 444 367 l 721 0 "},"y":{"ha":824,"x_min":0,"x_max":0,"o":"m 213 -250 b 99 -226 171 -250 132 -242 l 124 -137 b 208 -156 149 -150 178 -156 b 313 -92 254 -156 285 -140 l 354 -3 l 42 718 l 157 718 l 408 121 l 646 718 l 758 718 l 431 -81 b 213 -250 381 -203 311 -249 "},"ý":{"ha":824,"x_min":0,"x_max":0,"o":"m 465 1000 l 575 975 l 378 800 l 297 800 m 213 -250 b 99 -226 171 -250 132 -242 l 124 -137 b 208 -156 149 -150 178 -156 b 313 -92 254 -156 285 -140 l 354 -3 l 42 718 l 157 718 l 408 121 l 646 718 l 758 718 l 431 -81 b 213 -250 381 -203 311 -249 "},"ŷ":{"ha":824,"x_min":0,"x_max":0,"o":"m 360 990 l 457 990 l 599 800 l 518 800 l 408 919 l 300 800 l 221 800 m 213 -250 b 99 -226 171 -250 132 -242 l 124 -137 b 208 -156 149 -150 178 -156 b 313 -92 254 -156 285 -140 l 354 -3 l 42 718 l 157 718 l 408 121 l 646 718 l 758 718 l 431 -81 b 213 -250 381 -203 311 -249 "},"ÿ":{"ha":824,"x_min":0,"x_max":0,"o":"m 275 829 b 211 893 239 829 211 858 b 275 957 211 926 239 957 b 339 893 310 957 339 926 b 275 829 339 858 310 829 m 542 829 b 478 893 506 829 478 858 b 542 957 478 926 506 957 b 606 893 576 957 606 926 b 542 829 606 858 576 829 m 213 -250 b 99 -226 171 -250 132 -242 l 124 -137 b 208 -156 149 -150 178 -156 b 313 -92 254 -156 285 -140 l 354 -3 l 42 718 l 157 718 l 408 121 l 646 718 l 758 718 l 431 -81 b 213 -250 381 -203 311 -249 "},"ỳ":{"ha":824,"x_min":0,"x_max":0,"o":"m 228 975 l 338 1000 l 506 800 l 425 800 m 213 -250 b 99 -226 171 -250 132 -242 l 124 -137 b 208 -156 149 -150 178 -156 b 313 -92 254 -156 285 -140 l 354 -3 l 42 718 l 157 718 l 408 121 l 646 718 l 758 718 l 431 -81 b 213 -250 381 -203 311 -249 "},"z":{"ha":714,"x_min":0,"x_max":0,"o":"m 75 82 l 499 619 l 83 619 l 83 718 l 639 718 l 639 636 l 214 99 l 642 99 l 642 0 l 75 0 "},"ź":{"ha":714,"x_min":0,"x_max":0,"o":"m 424 1000 l 533 975 l 336 800 l 256 800 m 75 82 l 499 619 l 83 619 l 83 718 l 639 718 l 639 636 l 214 99 l 642 99 l 642 0 l 75 0 "},"ž":{"ha":714,"x_min":0,"x_max":0,"o":"m 179 990 l 258 990 l 367 871 l 476 990 l 557 990 l 415 800 l 318 800 m 75 82 l 499 619 l 83 619 l 83 718 l 639 718 l 639 636 l 214 99 l 642 99 l 642 0 l 75 0 "},"ż":{"ha":714,"x_min":0,"x_max":0,"o":"m 367 829 b 303 893 331 829 303 858 b 367 957 303 926 331 957 b 431 893 401 957 431 926 b 367 829 431 858 401 829 m 75 82 l 499 619 l 83 619 l 83 718 l 639 718 l 639 636 l 214 99 l 642 99 l 642 0 l 75 0 "},"*":{"ha":568,"x_min":0,"x_max":0,"o":"m 283 522 b 249 553 264 522 249 536 b 271 726 249 611 264 668 b 132 621 224 692 182 650 b 88 636 118 613 97 619 b 97 681 78 653 83 672 b 258 749 147 710 204 725 b 97 817 204 772 147 788 b 88 861 83 825 78 844 b 132 876 97 878 118 885 b 271 771 182 847 224 806 b 249 944 264 829 249 886 b 283 975 249 961 264 975 b 318 944 303 975 318 961 b 296 771 318 886 303 829 b 435 876 343 806 385 847 b 479 861 449 885 469 878 b 469 817 489 844 483 825 b 308 749 419 788 363 772 b 469 681 363 725 419 710 b 479 636 483 672 489 653 b 435 621 469 619 449 613 b 296 726 385 650 343 692 b 318 553 303 668 318 611 b 283 522 318 536 303 522 "},"\\":{"ha":576,"x_min":0,"x_max":0,"o":"m -7 1032 l 111 1032 l 599 -103 l 481 -103 "},":":{"ha":351,"x_min":0,"x_max":0,"o":"m 178 560 b 101 636 135 560 101 594 b 178 710 101 675 135 710 b 251 636 218 710 251 675 b 178 560 251 594 218 560 m 178 -17 b 101 60 135 -17 101 18 b 178 133 101 99 135 133 b 251 60 218 133 251 99 b 178 -17 251 18 218 -17 "},",":{"ha":367,"x_min":0,"x_max":0,"o":"m 110 -146 b 182 -17 147 -103 171 -60 b 107 60 140 -17 107 18 b 183 133 107 99 139 133 b 268 22 236 133 268 86 b 161 -185 268 -33 244 -81 "},"…":{"ha":908,"x_min":0,"x_max":0,"o":"m 178 -17 b 101 60 135 -17 101 18 b 178 133 101 99 135 133 b 251 60 218 133 251 99 b 178 -17 251 18 218 -17 m 456 -17 b 379 60 413 -17 379 18 b 456 133 379 99 413 133 b 529 60 496 133 529 99 b 456 -17 529 18 496 -17 m 733 -17 b 657 60 690 -17 657 18 b 733 133 657 99 690 133 b 807 60 774 133 807 99 b 733 -17 807 18 774 -17 "},"!":{"ha":379,"x_min":0,"x_max":0,"o":"m 129 954 l 257 954 l 229 268 l 156 268 m 192 -17 b 115 60 149 -17 115 18 b 192 133 115 99 149 133 b 265 60 232 133 265 99 b 192 -17 265 18 232 -17 "},"¡":{"ha":379,"x_min":0,"x_max":0,"o":"m 188 735 b 264 658 231 735 264 700 b 188 585 264 619 231 585 b 114 658 147 585 114 619 b 188 735 114 700 147 735 m 250 -236 l 122 -236 l 150 450 l 224 450 "},"#":{"ha":936,"x_min":0,"x_max":0,"o":"m 696 619 l 624 333 l 788 333 l 767 249 l 603 249 l 540 0 l 449 0 l 511 249 l 303 249 l 240 0 l 149 0 l 211 249 l 54 249 l 75 333 l 232 333 l 304 619 l 146 619 l 167 704 l 326 704 l 389 954 l 481 954 l 418 704 l 626 704 l 689 954 l 781 954 l 718 704 l 881 704 l 860 619 m 604 619 l 396 619 l 324 333 l 532 333 "},".":{"ha":351,"x_min":0,"x_max":0,"o":"m 178 -17 b 101 60 135 -17 101 18 b 178 133 101 99 135 133 b 251 60 218 133 251 99 b 178 -17 251 18 218 -17 "},"?":{"ha":704,"x_min":0,"x_max":0,"o":"m 256 528 b 533 707 418 542 533 617 b 346 872 533 792 463 872 b 108 740 242 872 169 815 l 38 811 b 351 971 111 903 211 971 b 643 717 528 971 643 858 b 365 446 643 593 528 481 l 365 268 l 256 268 m 311 -17 b 235 60 268 -17 235 18 b 311 133 235 99 268 133 b 385 60 351 133 385 99 b 311 -17 385 18 351 -17 "},"¿":{"ha":704,"x_min":0,"x_max":0,"o":"m 393 735 b 469 658 436 735 469 700 b 393 585 469 619 436 585 b 319 658 353 585 319 619 b 393 735 319 700 353 735 m 449 190 b 171 11 286 176 171 101 b 358 -154 171 -74 242 -154 b 596 -22 463 -154 535 -97 l 667 -93 b 353 -253 593 -185 493 -253 b 61 1 176 -253 61 -140 b 339 272 61 125 176 238 l 339 450 l 449 450 "},"\"":{"ha":575,"x_min":0,"x_max":0,"o":"m 132 596 b 99 874 121 676 99 804 b 163 938 99 908 128 938 b 226 874 197 938 226 908 b 193 596 226 804 204 676 l 132 596 m 382 596 b 349 874 371 676 349 804 b 413 938 349 908 378 938 b 476 874 447 938 476 908 b 443 596 476 804 454 676 l 382 596 "},"'":{"ha":325,"x_min":0,"x_max":0,"o":"m 132 596 b 99 874 121 676 99 804 b 163 938 99 908 128 938 b 226 874 197 938 226 908 b 193 596 226 804 204 676 l 132 596 "},";":{"ha":367,"x_min":0,"x_max":0,"o":"m 183 560 b 107 636 140 560 107 594 b 183 710 107 675 140 710 b 257 636 224 710 257 675 b 183 560 257 594 224 560 m 110 -146 b 182 -17 147 -103 171 -60 b 107 60 140 -17 107 18 b 183 133 107 99 139 133 b 268 22 236 133 268 86 b 161 -185 268 -33 244 -81 "},"/":{"ha":576,"x_min":0,"x_max":0,"o":"m 465 1032 l 583 1032 l 96 -103 l -22 -103 "},"_":{"ha":822,"x_min":0,"x_max":0,"o":"m -3 -104 l 825 -104 l 825 -197 l -3 -197 "},"{":{"ha":547,"x_min":0,"x_max":0,"o":"m 475 -231 b 196 4 260 -207 196 -139 l 196 200 b 60 331 196 293 158 331 l 60 407 b 196 539 160 407 196 447 l 196 733 b 475 968 196 878 261 944 l 483 894 b 286 728 318 869 286 838 l 288 528 b 183 369 288 440 251 393 b 288 210 253 344 288 297 l 286 11 b 483 -157 286 -101 321 -132 l 475 -231 "},"}":{"ha":547,"x_min":0,"x_max":0,"o":"m 64 -157 b 261 11 226 -132 261 -101 l 260 210 b 364 369 260 297 294 344 b 260 528 296 393 260 440 l 261 728 b 64 894 261 838 229 869 l 72 968 b 351 733 286 944 351 878 l 351 539 b 488 407 351 447 388 407 l 488 331 b 351 200 389 331 351 293 l 351 4 b 72 -231 351 -139 288 -207 "},"[":{"ha":508,"x_min":0,"x_max":0,"o":"m 113 1019 l 440 1019 l 440 940 l 204 940 l 204 -81 l 440 -81 l 440 -160 l 113 -160 "},"]":{"ha":508,"x_min":0,"x_max":0,"o":"m 68 -81 l 304 -81 l 304 940 l 68 940 l 68 1019 l 396 1019 l 396 -160 l 68 -160 "},"(":{"ha":496,"x_min":0,"x_max":0,"o":"m 376 -236 b 86 368 190 -81 86 129 b 376 972 86 608 190 817 l 432 914 b 197 368 281 758 197 596 b 432 -176 197 142 281 -22 l 376 -236 "},")":{"ha":496,"x_min":0,"x_max":0,"o":"m 64 -176 b 299 368 215 -22 299 142 b 64 914 299 596 215 758 l 119 972 b 410 368 306 817 410 608 b 119 -236 410 129 306 -81 "},"—":{"ha":1225,"x_min":0,"x_max":0,"o":"m 78 426 l 1147 426 l 1147 328 l 78 328 "},"–":{"ha":801,"x_min":0,"x_max":0,"o":"m 78 426 l 724 426 l 724 328 l 78 328 "},"-":{"ha":515,"x_min":0,"x_max":0,"o":"m 78 428 l 438 428 l 438 326 l 78 326 "},"“":{"ha":644,"x_min":0,"x_max":0,"o":"m 257 896 b 185 767 219 853 196 810 b 260 690 226 767 260 732 b 183 617 260 651 228 617 b 99 728 131 617 99 664 b 206 935 99 783 122 831 m 535 896 b 463 767 497 853 474 810 b 538 690 504 767 538 732 b 461 617 538 651 506 617 b 376 728 408 617 376 664 b 483 935 376 783 400 831 "},"”":{"ha":644,"x_min":0,"x_max":0,"o":"m 110 658 b 182 788 147 701 171 744 b 107 864 140 788 107 822 b 183 938 107 903 139 938 b 268 826 236 938 268 890 b 161 619 268 771 244 724 m 388 658 b 460 788 425 701 449 744 b 385 864 418 788 385 822 b 461 938 385 903 417 938 b 546 826 514 938 546 890 b 439 619 546 771 522 724 "},"‘":{"ha":367,"x_min":0,"x_max":0,"o":"m 257 896 b 185 767 219 853 196 810 b 260 690 226 767 260 732 b 183 617 260 651 228 617 b 99 728 131 617 99 664 b 206 935 99 783 122 831 "},"’":{"ha":367,"x_min":0,"x_max":0,"o":"m 110 658 b 182 788 147 701 171 744 b 107 864 140 788 107 822 b 183 938 107 903 139 938 b 268 826 236 938 268 890 b 161 619 268 771 244 724 "}," ":{"ha":403,"x_min":0,"x_max":0,"o":""},"¢":{"ha":753,"x_min":0,"x_max":0,"o":"m 699 93 b 475 -15 639 33 561 -6 l 475 -103 l 367 -103 l 367 -10 b 67 360 199 26 67 181 b 367 728 67 539 199 693 l 367 818 l 475 818 l 475 733 b 694 629 558 724 635 686 l 622 558 b 475 639 583 601 532 631 l 475 79 b 626 164 533 89 586 119 l 699 93 m 176 360 b 367 88 176 232 258 122 l 367 631 b 176 360 258 596 176 486 "},"$":{"ha":851,"x_min":0,"x_max":0,"o":"m 776 260 b 475 -14 776 117 675 -1 l 475 -103 l 367 -103 l 367 -11 b 64 136 244 4 144 57 l 132 221 b 367 90 196 157 271 108 l 367 442 b 97 700 200 485 97 547 b 367 969 97 839 210 950 l 367 1054 l 475 1054 l 475 969 b 751 836 588 956 676 906 l 685 751 b 475 867 622 811 551 853 l 475 533 b 776 260 651 490 776 425 m 207 708 b 367 563 207 632 264 593 l 367 869 b 207 708 272 853 207 785 m 475 85 b 667 250 601 94 667 169 b 475 414 667 338 600 379 l 475 85 "},"€":{"ha":944,"x_min":0,"x_max":0,"o":"m 561 83 b 831 204 665 83 761 131 l 904 129 b 561 -17 815 40 693 -17 b 96 328 349 -17 161 131 l -33 328 l -33 421 l 75 421 b 72 478 74 439 72 458 b 79 560 72 506 75 533 l -33 560 l -33 653 l 106 653 b 561 971 178 838 357 971 b 904 825 693 971 815 915 l 831 750 b 561 871 761 824 665 871 b 224 653 415 871 286 781 l 656 653 l 656 560 l 190 560 b 182 478 185 533 182 506 b 186 421 182 458 183 439 l 656 421 l 656 328 l 211 328 b 561 83 269 186 407 83 "},"£":{"ha":860,"x_min":0,"x_max":0,"o":"m 796 103 l 796 0 l 76 0 l 76 53 l 167 103 l 167 363 l 81 363 l 81 456 l 167 456 l 167 643 b 468 971 167 835 292 971 b 761 813 596 971 717 906 l 682 735 b 468 872 658 815 569 872 b 275 643 356 872 275 778 l 275 456 l 556 456 l 556 363 l 275 363 l 275 103 "},"¥":{"ha":932,"x_min":0,"x_max":0,"o":"m 569 457 l 811 457 l 811 364 l 524 364 l 524 253 l 811 253 l 811 160 l 524 160 l 524 0 l 410 0 l 410 160 l 122 160 l 122 253 l 410 253 l 410 364 l 122 364 l 122 457 l 364 457 l 25 954 l 160 954 l 467 492 l 776 954 l 907 954 "},"+":{"ha":824,"x_min":0,"x_max":0,"o":"m 731 413 l 464 413 l 464 146 l 360 146 l 360 413 l 93 413 l 93 515 l 360 515 l 360 783 l 464 783 l 464 515 l 731 515 "},"−":{"ha":824,"x_min":0,"x_max":0,"o":"m 93 515 l 731 515 l 731 413 l 93 413 "},"×":{"ha":751,"x_min":0,"x_max":0,"o":"m 450 465 l 638 276 l 564 203 l 376 392 l 188 203 l 114 275 l 303 464 l 114 653 l 188 726 l 376 538 l 565 726 l 638 653 "},"÷":{"ha":824,"x_min":0,"x_max":0,"o":"m 414 614 b 338 690 371 614 338 649 b 414 764 338 729 371 764 b 488 690 454 764 488 729 b 414 614 488 649 454 614 m 93 515 l 731 515 l 731 413 l 93 413 m 414 164 b 338 240 371 164 338 199 b 414 314 338 279 371 314 b 488 240 454 314 488 279 b 414 164 488 199 454 164 "},"=":{"ha":824,"x_min":0,"x_max":0,"o":"m 93 668 l 731 668 l 731 565 l 93 565 m 93 363 l 731 363 l 731 260 l 93 260 "},">":{"ha":814,"x_min":0,"x_max":0,"o":"m 106 221 l 635 478 l 106 735 l 106 832 l 738 518 l 738 436 l 106 122 "},"<":{"ha":814,"x_min":0,"x_max":0,"o":"m 76 436 l 76 518 l 708 832 l 708 735 l 179 478 l 708 221 l 708 122 "},"~":{"ha":618,"x_min":0,"x_max":0,"o":"m 399 417 b 219 508 317 417 276 508 b 150 414 183 508 161 481 l 86 424 b 219 589 100 529 143 589 b 399 497 301 589 342 497 b 468 592 435 497 457 525 l 532 582 b 399 417 518 476 475 417 "},"%":{"ha":1106,"x_min":0,"x_max":0,"o":"m 286 485 b 65 721 154 485 65 592 b 288 963 65 858 158 963 b 508 724 419 963 508 856 b 286 485 508 589 417 485 m 835 954 l 926 954 l 274 0 l 182 0 m 288 560 b 421 722 365 560 421 629 b 286 888 421 817 364 888 b 153 722 208 888 153 818 b 288 560 153 631 211 560 m 817 -14 b 596 225 689 -14 596 89 b 818 464 596 356 686 464 b 1039 226 950 464 1039 356 b 817 -14 1039 90 946 -14 m 818 61 b 951 225 897 61 951 131 b 817 389 951 318 894 389 b 683 226 738 389 683 317 b 818 61 683 132 739 61 "},"‰":{"ha":1624,"x_min":0,"x_max":0,"o":"m 286 485 b 65 721 154 485 65 592 b 288 963 65 858 158 963 b 508 724 419 963 508 856 b 286 485 508 589 417 485 m 835 954 l 926 954 l 274 0 l 182 0 m 288 560 b 421 722 365 560 421 629 b 286 888 421 817 364 888 b 153 722 208 888 153 818 b 288 560 153 631 211 560 m 817 -14 b 596 225 689 -14 596 89 b 818 464 596 356 686 464 b 1039 226 950 464 1039 356 b 817 -14 1039 90 946 -14 m 1335 -14 b 1114 225 1207 -14 1114 89 b 1336 464 1114 356 1204 464 b 1557 226 1468 464 1557 356 b 1335 -14 1557 90 1464 -14 m 818 61 b 951 225 897 61 951 131 b 817 389 951 318 894 389 b 683 226 738 389 683 317 b 818 61 683 132 739 61 m 1336 61 b 1469 225 1415 61 1469 131 b 1335 389 1469 318 1413 389 b 1201 226 1256 389 1201 317 b 1336 61 1201 132 1257 61 "},"@":{"ha":1224,"x_min":0,"x_max":0,"o":"m 592 -161 b 61 360 304 -161 61 76 b 642 938 61 674 326 938 b 1163 443 925 938 1163 711 b 913 108 1163 217 1035 108 b 753 228 826 108 768 154 b 528 108 701 161 624 108 b 297 349 394 108 297 204 b 621 696 297 543 460 696 b 811 583 719 696 781 643 l 829 675 l 922 668 b 849 265 879 447 849 300 b 940 174 849 207 885 174 b 1113 443 1017 174 1113 249 b 639 888 1113 685 896 888 b 114 361 354 888 114 647 b 594 -112 114 104 333 -112 b 894 -28 708 -112 793 -89 l 919 -65 b 592 -161 813 -133 718 -161 m 553 190 b 781 432 683 190 767 297 b 633 614 792 543 743 614 b 397 354 506 614 397 493 b 553 190 397 256 458 190 "},"&":{"ha":931,"x_min":0,"x_max":0,"o":"m 774 -10 l 649 117 b 357 -17 569 35 475 -17 b 57 253 188 -17 57 86 b 275 532 57 376 128 467 b 194 742 221 607 194 671 b 438 965 194 867 294 965 b 663 744 565 965 663 864 b 429 504 663 618 565 558 b 647 265 494 428 561 356 b 756 479 689 328 726 400 l 846 439 b 714 197 806 350 763 267 l 872 36 m 438 872 b 299 742 358 872 299 824 b 374 571 299 692 322 636 b 558 742 501 621 558 663 b 438 872 558 815 508 872 m 361 76 b 582 185 444 76 518 117 b 329 463 468 303 396 382 b 161 256 225 414 161 344 b 361 76 161 143 253 76 "},"|":{"ha":386,"x_min":0,"x_max":0,"o":"m 151 1032 l 235 1032 l 235 -103 l 151 -103 "},"^":{"ha":681,"x_min":0,"x_max":0,"o":"m 300 954 l 382 954 l 606 574 l 515 574 l 340 878 l 164 574 l 75 574 "},"̦":{"ha":0,"x_min":0,"x_max":0,"o":"m -242 -350 b -181 -240 -210 -314 -189 -278 b -243 -176 -215 -240 -243 -211 b -179 -114 -243 -143 -215 -114 b -107 -208 -135 -114 -107 -153 b -197 -382 -107 -254 -128 -293 "},"´":{"ha":453,"x_min":0,"x_max":0,"o":"m 256 1000 l 365 975 l 168 800 l 88 800 "},"˘":{"ha":581,"x_min":0,"x_max":0,"o":"m 290 818 b 88 901 217 818 144 846 l 153 967 b 290 908 190 931 242 908 b 428 967 339 908 390 931 l 493 901 b 290 818 438 846 364 818 "},"ˇ":{"ha":553,"x_min":0,"x_max":0,"o":"m 88 990 l 167 990 l 275 871 l 385 990 l 465 990 l 324 800 l 226 800 "},"¸":{"ha":433,"x_min":0,"x_max":0,"o":"m 250 -62 b 346 -154 306 -62 346 -100 b 210 -267 346 -222 286 -267 b 88 -228 161 -267 115 -250 l 114 -169 b 204 -201 142 -192 174 -201 b 274 -149 244 -201 274 -179 b 219 -101 274 -122 257 -101 b 172 -117 203 -101 185 -107 l 150 -93 l 196 15 l 268 15 l 235 -64 b 250 -62 240 -62 244 -62 "},"ˆ":{"ha":553,"x_min":0,"x_max":0,"o":"m 226 990 l 324 990 l 465 800 l 385 800 l 275 919 l 167 800 l 88 800 "},"¨":{"ha":569,"x_min":0,"x_max":0,"o":"m 151 829 b 88 893 115 829 88 858 b 151 957 88 926 115 957 b 215 893 186 957 215 926 b 151 829 215 858 186 829 m 418 829 b 354 893 382 829 354 858 b 418 957 354 926 382 957 b 482 893 453 957 482 926 b 418 829 482 858 453 829 "},"˙":{"ha":303,"x_min":0,"x_max":0,"o":"m 151 829 b 88 893 115 829 88 858 b 151 957 88 926 115 957 b 215 893 186 957 215 926 b 151 829 215 858 186 829 "},"`":{"ha":453,"x_min":0,"x_max":0,"o":"m 88 975 l 197 1000 l 365 800 l 285 800 "},"˝":{"ha":732,"x_min":0,"x_max":0,"o":"m 256 1000 l 365 975 l 168 799 l 88 799 m 533 997 l 643 972 l 446 799 l 365 799 "},"¯":{"ha":606,"x_min":0,"x_max":0,"o":"m 88 901 l 518 901 l 518 825 l 88 825 "},"˛":{"ha":443,"x_min":0,"x_max":0,"o":"m 239 -240 b 88 -92 150 -240 88 -185 b 161 26 88 -37 121 10 l 246 0 b 165 -79 199 0 165 -33 b 246 -158 165 -128 194 -158 b 311 -132 275 -158 297 -147 l 356 -200 b 239 -240 324 -226 283 -240 "},"˚":{"ha":461,"x_min":0,"x_max":0,"o":"m 231 818 b 88 961 151 818 88 882 b 231 1104 88 1040 151 1104 b 374 961 310 1104 374 1040 b 231 818 374 882 310 818 m 231 879 b 313 961 275 879 313 917 b 231 1043 313 1006 275 1043 b 149 961 186 1043 149 1006 b 231 879 149 917 186 879 "},"˜":{"ha":626,"x_min":0,"x_max":0,"o":"m 403 799 b 224 890 321 799 281 890 b 154 796 188 890 165 863 l 90 806 b 224 971 104 911 147 971 b 403 879 306 971 346 879 b 472 974 439 879 461 907 l 536 964 b 403 799 522 858 479 799 "}}}
